<svg width="930" height="200" viewBox="0 0 930 200" fill="none" xmlns="http://www.w3.org/2000/svg">
<path d="M750 9C742.269 9 736 15.2677 736 23.0007C736 30.7323 742.267 37 750 37C757.731 37 764 30.7323 764 23.0007C764 15.2677 757.733 9 750 9ZM750 31.3181C745.407 31.3181 741.682 27.5942 741.682 22.9993C741.682 18.4058 745.405 14.6805 750 14.6805C754.593 14.6805 758.318 18.4044 758.318 22.9993C758.318 27.5942 754.595 31.3181 750 31.3181Z" fill="#18A795"/>
<circle cx="8" cy="192" r="8" fill="#FC5B23"/>
<circle cx="920" cy="149" r="10" fill="#FDD13C"/>
<circle opacity="0.4" cx="199" cy="23" r="22" stroke="#FDD13C" stroke-width="2"/>
</svg>
