<svg width="1111" height="126" viewBox="0 0 1111 126" fill="none" xmlns="http://www.w3.org/2000/svg">
<path opacity="0.3" d="M1004 0C996.269 0 990 6.26771 990 14.0007C990 21.7323 996.267 28 1004 28C1011.73 28 1018 21.7323 1018 14.0007C1018 6.26771 1011.73 0 1004 0ZM1004 22.3181C999.407 22.3181 995.682 18.5942 995.682 13.9993C995.682 9.4058 999.405 5.68046 1004 5.68046C1008.59 5.68046 1012.32 9.40439 1012.32 13.9993C1012.32 18.5942 1008.59 22.3181 1004 22.3181Z" fill="#07A47C"/>
<circle cx="8" cy="118" r="8" fill="#FF8265"/>
<circle cx="1101" cy="108" r="10" fill="#FDD13C"/>
<circle opacity="0.4" cx="217" cy="23" r="22" stroke="#FDD13C" stroke-width="2"/>
</svg>
