<svg width="343" height="610" viewBox="0 0 343 610" fill="none" xmlns="http://www.w3.org/2000/svg">
<rect width="343" height="610" rx="12" fill="#FFFBF7"/>
<path d="M323.823 430.545C274.482 429.463 313.11 518.338 251.921 516.997C236.68 516.663 194.196 494.245 196.264 527.353C196.803 535.953 322.329 530.324 322.329 530.324C322.329 530.324 350.15 431.122 323.823 430.545Z" fill="#18A795"/>
<path d="M279.754 364.934C261.45 355.069 267.514 327.843 286.763 327.01C306.011 326.177 334.052 355.994 330.773 368.648C327.493 381.302 293.558 372.376 279.754 364.934Z" fill="#FFB8A4"/>
<path d="M319.108 550.32C319.378 549.277 320.113 548.422 321.134 548.054C321.809 547.806 321.516 546.718 320.834 546.966C319.446 547.469 318.395 548.579 318.02 550.02C317.84 550.725 318.92 551.025 319.108 550.32Z" fill="#FF7707"/>
<path d="M334.113 553.884C335.253 552.758 336.394 551.625 337.534 550.5C338.052 549.99 337.256 549.195 336.739 549.705C335.598 550.83 334.458 551.963 333.318 553.088C332.8 553.599 333.595 554.394 334.113 553.884Z" fill="#FF7707"/>
<path d="M336.724 521.6C337.827 520.708 338.93 519.822 340.04 518.93C340.603 518.472 339.8 517.684 339.245 518.134C338.142 519.027 337.039 519.912 335.929 520.805C335.358 521.263 336.161 522.051 336.724 521.6Z" fill="#FF7707"/>
<path d="M336.724 537.355C337.827 536.463 338.93 535.577 340.04 534.684C340.603 534.227 339.8 533.439 339.245 533.889C338.142 534.782 337.039 535.667 335.929 536.56C335.358 537.018 336.161 537.806 336.724 537.355Z" fill="#FF7707"/>
<path d="M338.052 388.264C337.185 389.697 336.31 391.131 335.443 392.572C335.075 393.182 336.023 393.733 336.398 393.13C337.266 391.697 338.14 390.263 339.008 388.823C339.375 388.212 338.42 387.654 338.052 388.264Z" fill="#FF7707"/>
<path d="M338.015 399.952C337.038 401.158 336.06 402.356 335.082 403.562C334.641 404.106 335.413 404.892 335.862 404.341C336.839 403.135 337.817 401.937 338.795 400.732C339.236 400.18 338.464 399.401 338.015 399.952Z" fill="#FF7707"/>
<path d="M335.185 411.281C334.171 412.45 333.156 413.626 332.142 414.795C331.679 415.331 332.458 416.111 332.921 415.574C333.936 414.405 334.95 413.229 335.965 412.06C336.428 411.531 335.649 410.744 335.185 411.281Z" fill="#FF7707"/>
</svg>
