<svg width="646" height="126" viewBox="0 0 646 126" fill="none" xmlns="http://www.w3.org/2000/svg">
<path opacity="0.3" d="M541 0C533.269 0 527 6.26771 527 14.0007C527 21.7323 533.267 28 541 28C548.731 28 555 21.7323 555 14.0007C555 6.26771 548.733 0 541 0ZM541 22.3181C536.407 22.3181 532.682 18.5942 532.682 13.9993C532.682 9.4058 536.405 5.68046 541 5.68046C545.593 5.68046 549.318 9.40439 549.318 13.9993C549.318 18.5942 545.595 22.3181 541 22.3181Z" fill="#07A47C"/>
<circle cx="614" cy="118" r="8" fill="#FF8265"/>
<circle cx="636" cy="66" r="10" fill="#FDD13C"/>
<circle opacity="0.4" cx="23" cy="23" r="22" stroke="#FDD13C" stroke-width="2"/>
</svg>
