<svg width="1072" height="76" viewBox="0 0 1072 76" fill="none" xmlns="http://www.w3.org/2000/svg">
<path opacity="0.3" d="M1058 9C1050.27 9 1044 15.2677 1044 23.0007C1044 30.7323 1050.27 37 1058 37C1065.73 37 1072 30.7323 1072 23.0007C1072 15.2677 1065.73 9 1058 9ZM1058 31.3181C1053.41 31.3181 1049.68 27.5942 1049.68 22.9993C1049.68 18.4058 1053.41 14.6805 1058 14.6805C1062.59 14.6805 1066.32 18.4044 1066.32 22.9993C1066.32 27.5942 1062.59 31.3181 1058 31.3181Z" fill="#07A47C"/>
<circle cx="10" cy="66" r="10" fill="#FDD13C"/>
<circle opacity="0.4" cx="80" cy="23" r="22" stroke="#FDD13C" stroke-width="2"/>
</svg>
