<svg width="334" height="79" viewBox="0 0 334 79" fill="none" xmlns="http://www.w3.org/2000/svg">
<circle cx="8" cy="71" r="8" fill="#FDD13C"/>
<circle opacity="0.4" cx="60" cy="18" r="17" stroke="#FDD13C" stroke-width="2"/>
<path opacity="0.3" d="M325 36C320.03 36 316 40.0292 316 45.0005C316 49.9708 320.029 54 325 54C329.97 54 334 49.9708 334 45.0005C334 40.0292 329.971 36 325 36ZM325 50.3474C322.047 50.3474 319.652 47.9534 319.652 44.9995C319.652 42.0466 322.046 39.6517 325 39.6517C327.953 39.6517 330.348 42.0457 330.348 44.9995C330.348 47.9534 327.954 50.3474 325 50.3474Z" fill="#18A795"/>
</svg>
