<svg width="129" height="129" viewBox="0 0 129 129" fill="none" xmlns="http://www.w3.org/2000/svg">
<path d="M2.40725 4.81461C3.73677 4.81461 4.81451 3.73682 4.81451 2.4073C4.81451 1.07779 3.73677 0 2.40725 0C1.07774 0 0 1.07779 0 2.4073C0 3.73682 1.07774 4.81461 2.40725 4.81461Z" fill="white"/>
<path d="M23.048 4.81461C24.3775 4.81461 25.4552 3.73682 25.4552 2.4073C25.4552 1.07779 24.3775 0 23.048 0C21.7185 0 20.6406 1.07779 20.6406 2.4073C20.6406 3.73682 21.7185 4.81461 23.048 4.81461Z" fill="white"/>
<path d="M43.6866 4.81461C45.0161 4.81461 46.0939 3.73682 46.0939 2.4073C46.0939 1.07779 45.0161 0 43.6866 0C42.357 0 41.2793 1.07779 41.2793 2.4073C41.2793 3.73682 42.357 4.81461 43.6866 4.81461Z" fill="white"/>
<path d="M66.7345 2.4073C66.7345 3.73741 65.6573 4.81461 64.3272 4.81461C62.9971 4.81461 61.9199 3.73741 61.9199 2.4073C61.9199 1.0772 62.9971 0 64.3272 0C65.6573 0 66.7345 1.0772 66.7345 2.4073Z" fill="white"/>
<path d="M84.9679 4.81461C86.2974 4.81461 87.3752 3.73682 87.3752 2.4073C87.3752 1.07779 86.2974 0 84.9679 0C83.6384 0 82.5605 1.07779 82.5605 2.4073C82.5605 3.73682 83.6384 4.81461 84.9679 4.81461Z" fill="white"/>
<path d="M105.609 4.81461C106.938 4.81461 108.016 3.73682 108.016 2.4073C108.016 1.07779 106.938 0 105.609 0C104.279 0 103.201 1.07779 103.201 2.4073C103.201 3.73682 104.279 4.81461 105.609 4.81461Z" fill="white"/>
<path d="M126.243 4.81461C127.573 4.81461 128.651 3.73682 128.651 2.4073C128.651 1.07779 127.573 0 126.243 0C124.914 0 123.836 1.07779 123.836 2.4073C123.836 3.73682 124.914 4.81461 126.243 4.81461Z" fill="white"/>
<path d="M2.40725 25.4452C3.73677 25.4452 4.81451 24.3674 4.81451 23.0379C4.81451 21.7084 3.73677 20.6306 2.40725 20.6306C1.07774 20.6306 0 21.7084 0 23.0379C0 24.3674 1.07774 25.4452 2.40725 25.4452Z" fill="white"/>
<path d="M23.048 25.4452C24.3775 25.4452 25.4552 24.3674 25.4552 23.0379C25.4552 21.7084 24.3775 20.6306 23.048 20.6306C21.7185 20.6306 20.6406 21.7084 20.6406 23.0379C20.6406 24.3674 21.7185 25.4452 23.048 25.4452Z" fill="white"/>
<path d="M43.6866 25.4452C45.0161 25.4452 46.0939 24.3674 46.0939 23.0379C46.0939 21.7084 45.0161 20.6306 43.6866 20.6306C42.357 20.6306 41.2793 21.7084 41.2793 23.0379C41.2793 24.3674 42.357 25.4452 43.6866 25.4452Z" fill="white"/>
<path d="M66.7345 23.0379C66.7345 24.368 65.6573 25.4452 64.3272 25.4452C62.9971 25.4452 61.9199 24.368 61.9199 23.0379C61.9199 21.7078 62.9971 20.6306 64.3272 20.6306C65.6573 20.6306 66.7345 21.7125 66.7345 23.0379Z" fill="white"/>
<path d="M84.9679 25.4452C86.2974 25.4452 87.3752 24.3674 87.3752 23.0379C87.3752 21.7084 86.2974 20.6306 84.9679 20.6306C83.6384 20.6306 82.5605 21.7084 82.5605 23.0379C82.5605 24.3674 83.6384 25.4452 84.9679 25.4452Z" fill="white"/>
<path d="M105.609 25.4452C106.938 25.4452 108.016 24.3674 108.016 23.0379C108.016 21.7084 106.938 20.6306 105.609 20.6306C104.279 20.6306 103.201 21.7084 103.201 23.0379C103.201 24.3674 104.279 25.4452 105.609 25.4452Z" fill="white"/>
<path d="M126.243 25.4452C127.573 25.4452 128.651 24.3674 128.651 23.0379C128.651 21.7084 127.573 20.6306 126.243 20.6306C124.914 20.6306 123.836 21.7084 123.836 23.0379C123.836 24.3674 124.914 25.4452 126.243 25.4452Z" fill="white"/>
<path d="M2.40725 45.9543C3.73677 45.9543 4.81451 44.8765 4.81451 43.547C4.81451 42.2174 3.73677 41.1396 2.40725 41.1396C1.07774 41.1396 0 42.2174 0 43.547C0 44.8765 1.07774 45.9543 2.40725 45.9543Z" fill="white"/>
<path d="M23.048 45.9543C24.3775 45.9543 25.4552 44.8765 25.4552 43.547C25.4552 42.2174 24.3775 41.1396 23.048 41.1396C21.7185 41.1396 20.6406 42.2174 20.6406 43.547C20.6406 44.8765 21.7185 45.9543 23.048 45.9543Z" fill="white"/>
<path d="M43.6866 45.9543C45.0161 45.9543 46.0939 44.8765 46.0939 43.547C46.0939 42.2174 45.0161 41.1396 43.6866 41.1396C42.357 41.1396 41.2793 42.2174 41.2793 43.547C41.2793 44.8765 42.357 45.9543 43.6866 45.9543Z" fill="white"/>
<path d="M66.7345 43.547C66.7345 44.8771 65.6573 45.9543 64.3272 45.9543C62.9971 45.9543 61.9199 44.8771 61.9199 43.547C61.9199 42.2168 62.9971 41.1396 64.3272 41.1396C65.6573 41.1396 66.7345 42.2168 66.7345 43.547Z" fill="white"/>
<path d="M84.9679 45.9543C86.2974 45.9543 87.3752 44.8765 87.3752 43.547C87.3752 42.2174 86.2974 41.1396 84.9679 41.1396C83.6384 41.1396 82.5605 42.2174 82.5605 43.547C82.5605 44.8765 83.6384 45.9543 84.9679 45.9543Z" fill="white"/>
<path d="M105.609 45.9543C106.938 45.9543 108.016 44.8765 108.016 43.547C108.016 42.2174 106.938 41.1396 105.609 41.1396C104.279 41.1396 103.201 42.2174 103.201 43.547C103.201 44.8765 104.279 45.9543 105.609 45.9543Z" fill="white"/>
<path d="M126.243 45.9543C127.573 45.9543 128.651 44.8765 128.651 43.547C128.651 42.2174 127.573 41.1396 126.243 41.1396C124.914 41.1396 123.836 42.2174 123.836 43.547C123.836 44.8765 124.914 45.9543 126.243 45.9543Z" fill="white"/>
<path d="M2.40725 66.5944C3.73677 66.5944 4.81451 65.5166 4.81451 64.1871C4.81451 62.8576 3.73677 61.7798 2.40725 61.7798C1.07774 61.7798 0 62.8576 0 64.1871C0 65.5166 1.07774 66.5944 2.40725 66.5944Z" fill="white"/>
<path d="M23.048 66.5944C24.3775 66.5944 25.4552 65.5166 25.4552 64.1871C25.4552 62.8576 24.3775 61.7798 23.048 61.7798C21.7185 61.7798 20.6406 62.8576 20.6406 64.1871C20.6406 65.5166 21.7185 66.5944 23.048 66.5944Z" fill="white"/>
<path d="M43.6866 66.5944C45.0161 66.5944 46.0939 65.5166 46.0939 64.1871C46.0939 62.8576 45.0161 61.7798 43.6866 61.7798C42.357 61.7798 41.2793 62.8576 41.2793 64.1871C41.2793 65.5166 42.357 66.5944 43.6866 66.5944Z" fill="white"/>
<path d="M66.7345 64.1871C66.7345 65.5172 65.6573 66.5944 64.3272 66.5944C62.9971 66.5944 61.9199 65.5172 61.9199 64.1871C61.9199 62.857 62.9971 61.7798 64.3272 61.7798C65.6573 61.7798 66.7345 62.857 66.7345 64.1871Z" fill="white"/>
<path d="M84.9679 66.5944C86.2974 66.5944 87.3752 65.5166 87.3752 64.1871C87.3752 62.8576 86.2974 61.7798 84.9679 61.7798C83.6384 61.7798 82.5605 62.8576 82.5605 64.1871C82.5605 65.5166 83.6384 66.5944 84.9679 66.5944Z" fill="white"/>
<path d="M105.609 66.5944C106.938 66.5944 108.016 65.5166 108.016 64.1871C108.016 62.8576 106.938 61.7798 105.609 61.7798C104.279 61.7798 103.201 62.8576 103.201 64.1871C103.201 65.5166 104.279 66.5944 105.609 66.5944Z" fill="white"/>
<path d="M126.243 66.5944C127.573 66.5944 128.651 65.5166 128.651 64.1871C128.651 62.8576 127.573 61.7798 126.243 61.7798C124.914 61.7798 123.836 62.8576 123.836 64.1871C123.836 65.5166 124.914 66.5944 126.243 66.5944Z" fill="white"/>
<path d="M2.40725 87.225C3.73677 87.225 4.81451 86.1472 4.81451 84.8177C4.81451 83.4882 3.73677 82.4104 2.40725 82.4104C1.07774 82.4104 0 83.4882 0 84.8177C0 86.1472 1.07774 87.225 2.40725 87.225Z" fill="white"/>
<path d="M23.048 87.225C24.3775 87.225 25.4552 86.1472 25.4552 84.8177C25.4552 83.4882 24.3775 82.4104 23.048 82.4104C21.7185 82.4104 20.6406 83.4882 20.6406 84.8177C20.6406 86.1472 21.7185 87.225 23.048 87.225Z" fill="white"/>
<path d="M43.6866 87.225C45.0161 87.225 46.0939 86.1472 46.0939 84.8177C46.0939 83.4882 45.0161 82.4104 43.6866 82.4104C42.357 82.4104 41.2793 83.4882 41.2793 84.8177C41.2793 86.1472 42.357 87.225 43.6866 87.225Z" fill="white"/>
<path d="M66.7345 84.8177C66.7345 86.1478 65.6573 87.225 64.3272 87.225C62.9971 87.225 61.9199 86.1478 61.9199 84.8177C61.9199 83.4876 62.9971 82.4104 64.3272 82.4104C65.6573 82.4104 66.7345 83.4876 66.7345 84.8177Z" fill="white"/>
<path d="M84.9679 87.225C86.2974 87.225 87.3752 86.1472 87.3752 84.8177C87.3752 83.4882 86.2974 82.4104 84.9679 82.4104C83.6384 82.4104 82.5605 83.4882 82.5605 84.8177C82.5605 86.1472 83.6384 87.225 84.9679 87.225Z" fill="white"/>
<path d="M105.609 87.225C106.938 87.225 108.016 86.1472 108.016 84.8177C108.016 83.4882 106.938 82.4104 105.609 82.4104C104.279 82.4104 103.201 83.4882 103.201 84.8177C103.201 86.1472 104.279 87.225 105.609 87.225Z" fill="white"/>
<path d="M126.243 87.225C127.573 87.225 128.651 86.1472 128.651 84.8177C128.651 83.4882 127.573 82.4104 126.243 82.4104C124.914 82.4104 123.836 83.4882 123.836 84.8177C123.836 86.1472 124.914 87.225 126.243 87.225Z" fill="white"/>
<path d="M2.40725 107.734C3.73677 107.734 4.81451 106.656 4.81451 105.327C4.81451 103.997 3.73677 102.919 2.40725 102.919C1.07774 102.919 0 103.997 0 105.327C0 106.656 1.07774 107.734 2.40725 107.734Z" fill="white"/>
<path d="M23.048 107.734C24.3775 107.734 25.4552 106.656 25.4552 105.327C25.4552 103.997 24.3775 102.919 23.048 102.919C21.7185 102.919 20.6406 103.997 20.6406 105.327C20.6406 106.656 21.7185 107.734 23.048 107.734Z" fill="white"/>
<path d="M43.6866 107.734C45.0161 107.734 46.0939 106.656 46.0939 105.327C46.0939 103.997 45.0161 102.919 43.6866 102.919C42.357 102.919 41.2793 103.997 41.2793 105.327C41.2793 106.656 42.357 107.734 43.6866 107.734Z" fill="white"/>
<path d="M66.7345 105.327C66.7345 106.657 65.6573 107.734 64.3272 107.734C62.9971 107.734 61.9199 106.657 61.9199 105.327C61.9199 103.997 62.9971 102.919 64.3272 102.919C65.6573 102.919 66.7345 103.997 66.7345 105.327Z" fill="white"/>
<path d="M84.9679 107.734C86.2974 107.734 87.3752 106.656 87.3752 105.327C87.3752 103.997 86.2974 102.919 84.9679 102.919C83.6384 102.919 82.5605 103.997 82.5605 105.327C82.5605 106.656 83.6384 107.734 84.9679 107.734Z" fill="white"/>
<path d="M105.609 107.734C106.938 107.734 108.016 106.656 108.016 105.327C108.016 103.997 106.938 102.919 105.609 102.919C104.279 102.919 103.201 103.997 103.201 105.327C103.201 106.656 104.279 107.734 105.609 107.734Z" fill="white"/>
<path d="M126.243 107.734C127.573 107.734 128.651 106.656 128.651 105.327C128.651 103.997 127.573 102.919 126.243 102.919C124.914 102.919 123.836 103.997 123.836 105.327C123.836 106.656 124.914 107.734 126.243 107.734Z" fill="white"/>
<path d="M2.40725 128.5C3.73677 128.5 4.81451 127.423 4.81451 126.093C4.81451 124.764 3.73677 123.686 2.40725 123.686C1.07774 123.686 0 124.764 0 126.093C0 127.423 1.07774 128.5 2.40725 128.5Z" fill="white"/>
<path d="M23.048 128.5C24.3775 128.5 25.4552 127.423 25.4552 126.093C25.4552 124.764 24.3775 123.686 23.048 123.686C21.7185 123.686 20.6406 124.764 20.6406 126.093C20.6406 127.423 21.7185 128.5 23.048 128.5Z" fill="white"/>
<path d="M43.6866 128.5C45.0161 128.5 46.0939 127.423 46.0939 126.093C46.0939 124.764 45.0161 123.686 43.6866 123.686C42.357 123.686 41.2793 124.764 41.2793 126.093C41.2793 127.423 42.357 128.5 43.6866 128.5Z" fill="white"/>
<path d="M66.7345 126.093C66.7345 127.423 65.6573 128.5 64.3272 128.5C62.9971 128.5 61.9199 127.423 61.9199 126.093C61.9199 124.763 62.9971 123.686 64.3272 123.686C65.6573 123.686 66.7345 124.763 66.7345 126.093Z" fill="white"/>
<path d="M84.9679 128.5C86.2974 128.5 87.3752 127.423 87.3752 126.093C87.3752 124.764 86.2974 123.686 84.9679 123.686C83.6384 123.686 82.5605 124.764 82.5605 126.093C82.5605 127.423 83.6384 128.5 84.9679 128.5Z" fill="white"/>
<path d="M105.609 128.5C106.938 128.5 108.016 127.423 108.016 126.093C108.016 124.764 106.938 123.686 105.609 123.686C104.279 123.686 103.201 124.764 103.201 126.093C103.201 127.423 104.279 128.5 105.609 128.5Z" fill="white"/>
<path d="M126.243 128.5C127.573 128.5 128.651 127.423 128.651 126.093C128.651 124.764 127.573 123.686 126.243 123.686C124.914 123.686 123.836 124.764 123.836 126.093C123.836 127.423 124.914 128.5 126.243 128.5Z" fill="white"/>
</svg>
