<svg width="365" height="108" viewBox="0 0 365 108" fill="none" xmlns="http://www.w3.org/2000/svg">
<circle cx="359" cy="102" r="6" fill="#FDD13C"/>
<circle cx="32" cy="102" r="4" fill="#FF8265"/>
<circle opacity="0.4" cx="3" cy="23" r="22" stroke="#FDD13C" stroke-width="2"/>
<path opacity="0.3" d="M321 15C313.269 15 307 21.2677 307 29.0007C307 36.7323 313.267 43 321 43C328.731 43 335 36.7323 335 29.0007C335 21.2677 328.733 15 321 15ZM321 37.3181C316.407 37.3181 312.682 33.5942 312.682 28.9993C312.682 24.4058 316.405 20.6805 321 20.6805C325.593 20.6805 329.318 24.4044 329.318 28.9993C329.318 33.5942 325.595 37.3181 321 37.3181Z" fill="#07A47C"/>
</svg>
