<svg width="707" height="463" viewBox="0 0 707 463" fill="none" xmlns="http://www.w3.org/2000/svg">
<path d="M656.331 281.581C585.257 277.028 635.558 407.511 547.419 401.865C525.464 400.458 465.572 365.558 466.545 413.418C466.8 425.85 648.123 425.351 648.123 425.351C648.123 425.351 694.254 284.011 656.331 281.581Z" fill="#18A795"/>
<path d="M580.408 4.81461C581.738 4.81461 582.816 3.73682 582.816 2.4073C582.816 1.07779 581.738 0 580.408 0C579.079 0 578.001 1.07779 578.001 2.4073C578.001 3.73682 579.079 4.81461 580.408 4.81461Z" fill="#FF7707"/>
<path d="M601.048 4.81461C602.378 4.81461 603.456 3.73682 603.456 2.4073C603.456 1.07779 602.378 0 601.048 0C599.719 0 598.641 1.07779 598.641 2.4073C598.641 3.73682 599.719 4.81461 601.048 4.81461Z" fill="#FF7707"/>
<path d="M621.689 4.81461C623.018 4.81461 624.096 3.73682 624.096 2.4073C624.096 1.07779 623.018 0 621.689 0C620.359 0 619.281 1.07779 619.281 2.4073C619.281 3.73682 620.359 4.81461 621.689 4.81461Z" fill="#FF7707"/>
<path d="M644.736 2.4073C644.736 3.73741 643.659 4.81461 642.329 4.81461C640.999 4.81461 639.921 3.73741 639.921 2.4073C639.921 1.0772 640.999 0 642.329 0C643.659 0 644.736 1.0772 644.736 2.4073Z" fill="#FF7707"/>
<path d="M662.969 4.81461C664.298 4.81461 665.376 3.73682 665.376 2.4073C665.376 1.07779 664.298 0 662.969 0C661.639 0 660.562 1.07779 660.562 2.4073C660.562 3.73682 661.639 4.81461 662.969 4.81461Z" fill="#FF7707"/>
<path d="M683.609 4.81461C684.939 4.81461 686.016 3.73682 686.016 2.4073C686.016 1.07779 684.939 0 683.609 0C682.28 0 681.202 1.07779 681.202 2.4073C681.202 3.73682 682.28 4.81461 683.609 4.81461Z" fill="#FF7707"/>
<path d="M704.244 4.81461C705.574 4.81461 706.652 3.73682 706.652 2.4073C706.652 1.07779 705.574 0 704.244 0C702.915 0 701.837 1.07779 701.837 2.4073C701.837 3.73682 702.915 4.81461 704.244 4.81461Z" fill="#FF7707"/>
<path d="M580.408 25.4454C581.738 25.4454 582.816 24.3676 582.816 23.038C582.816 21.7085 581.738 20.6307 580.408 20.6307C579.079 20.6307 578.001 21.7085 578.001 23.038C578.001 24.3676 579.079 25.4454 580.408 25.4454Z" fill="#FF7707"/>
<path d="M601.048 25.4454C602.378 25.4454 603.456 24.3676 603.456 23.038C603.456 21.7085 602.378 20.6307 601.048 20.6307C599.719 20.6307 598.641 21.7085 598.641 23.038C598.641 24.3676 599.719 25.4454 601.048 25.4454Z" fill="#FF7707"/>
<path d="M621.689 25.4454C623.018 25.4454 624.096 24.3676 624.096 23.038C624.096 21.7085 623.018 20.6307 621.689 20.6307C620.359 20.6307 619.281 21.7085 619.281 23.038C619.281 24.3676 620.359 25.4454 621.689 25.4454Z" fill="#FF7707"/>
<path d="M644.736 23.038C644.736 24.3681 643.659 25.4454 642.329 25.4454C640.999 25.4454 639.921 24.3681 639.921 23.038C639.921 21.7079 640.999 20.6307 642.329 20.6307C643.659 20.6307 644.736 21.7126 644.736 23.038Z" fill="#FF7707"/>
<path d="M662.969 25.4454C664.298 25.4454 665.376 24.3676 665.376 23.038C665.376 21.7085 664.298 20.6307 662.969 20.6307C661.639 20.6307 660.562 21.7085 660.562 23.038C660.562 24.3676 661.639 25.4454 662.969 25.4454Z" fill="#FF7707"/>
<path d="M683.609 25.4454C684.939 25.4454 686.016 24.3676 686.016 23.038C686.016 21.7085 684.939 20.6307 683.609 20.6307C682.28 20.6307 681.202 21.7085 681.202 23.038C681.202 24.3676 682.28 25.4454 683.609 25.4454Z" fill="#FF7707"/>
<path d="M704.244 25.4454C705.574 25.4454 706.652 24.3676 706.652 23.038C706.652 21.7085 705.574 20.6307 704.244 20.6307C702.915 20.6307 701.837 21.7085 701.837 23.038C701.837 24.3676 702.915 25.4454 704.244 25.4454Z" fill="#FF7707"/>
<path d="M580.408 45.9543C581.738 45.9543 582.816 44.8765 582.816 43.547C582.816 42.2174 581.738 41.1396 580.408 41.1396C579.079 41.1396 578.001 42.2174 578.001 43.547C578.001 44.8765 579.079 45.9543 580.408 45.9543Z" fill="#FF7707"/>
<path d="M601.048 45.9543C602.378 45.9543 603.456 44.8765 603.456 43.547C603.456 42.2174 602.378 41.1396 601.048 41.1396C599.719 41.1396 598.641 42.2174 598.641 43.547C598.641 44.8765 599.719 45.9543 601.048 45.9543Z" fill="#FF7707"/>
<path d="M621.689 45.9543C623.018 45.9543 624.096 44.8765 624.096 43.547C624.096 42.2174 623.018 41.1396 621.689 41.1396C620.359 41.1396 619.281 42.2174 619.281 43.547C619.281 44.8765 620.359 45.9543 621.689 45.9543Z" fill="#FF7707"/>
<path d="M644.736 43.547C644.736 44.8771 643.659 45.9543 642.329 45.9543C640.999 45.9543 639.921 44.8771 639.921 43.547C639.921 42.2168 640.999 41.1396 642.329 41.1396C643.659 41.1396 644.736 42.2168 644.736 43.547Z" fill="#FF7707"/>
<path d="M662.969 45.9543C664.298 45.9543 665.376 44.8765 665.376 43.547C665.376 42.2174 664.298 41.1396 662.969 41.1396C661.639 41.1396 660.562 42.2174 660.562 43.547C660.562 44.8765 661.639 45.9543 662.969 45.9543Z" fill="#FF7707"/>
<path d="M683.609 45.9543C684.939 45.9543 686.016 44.8765 686.016 43.547C686.016 42.2174 684.939 41.1396 683.609 41.1396C682.28 41.1396 681.202 42.2174 681.202 43.547C681.202 44.8765 682.28 45.9543 683.609 45.9543Z" fill="#FF7707"/>
<path d="M704.244 45.9543C705.574 45.9543 706.652 44.8765 706.652 43.547C706.652 42.2174 705.574 41.1396 704.244 41.1396C702.915 41.1396 701.837 42.2174 701.837 43.547C701.837 44.8765 702.915 45.9543 704.244 45.9543Z" fill="#FF7707"/>
<path d="M580.408 66.5943C581.738 66.5943 582.816 65.5165 582.816 64.187C582.816 62.8575 581.738 61.7797 580.408 61.7797C579.079 61.7797 578.001 62.8575 578.001 64.187C578.001 65.5165 579.079 66.5943 580.408 66.5943Z" fill="#FF7707"/>
<path d="M601.048 66.5943C602.378 66.5943 603.456 65.5165 603.456 64.187C603.456 62.8575 602.378 61.7797 601.048 61.7797C599.719 61.7797 598.641 62.8575 598.641 64.187C598.641 65.5165 599.719 66.5943 601.048 66.5943Z" fill="#FF7707"/>
<path d="M621.689 66.5943C623.018 66.5943 624.096 65.5165 624.096 64.187C624.096 62.8575 623.018 61.7797 621.689 61.7797C620.359 61.7797 619.281 62.8575 619.281 64.187C619.281 65.5165 620.359 66.5943 621.689 66.5943Z" fill="#FF7707"/>
<path d="M644.736 64.187C644.736 65.5171 643.659 66.5943 642.329 66.5943C640.999 66.5943 639.921 65.5171 639.921 64.187C639.921 62.8569 640.999 61.7797 642.329 61.7797C643.659 61.7797 644.736 62.8569 644.736 64.187Z" fill="#FF7707"/>
<path d="M662.969 66.5943C664.298 66.5943 665.376 65.5165 665.376 64.187C665.376 62.8575 664.298 61.7797 662.969 61.7797C661.639 61.7797 660.562 62.8575 660.562 64.187C660.562 65.5165 661.639 66.5943 662.969 66.5943Z" fill="#FF7707"/>
<path d="M683.609 66.5943C684.939 66.5943 686.016 65.5165 686.016 64.187C686.016 62.8575 684.939 61.7797 683.609 61.7797C682.28 61.7797 681.202 62.8575 681.202 64.187C681.202 65.5165 682.28 66.5943 683.609 66.5943Z" fill="#FF7707"/>
<path d="M704.244 66.5943C705.574 66.5943 706.652 65.5165 706.652 64.187C706.652 62.8575 705.574 61.7797 704.244 61.7797C702.915 61.7797 701.837 62.8575 701.837 64.187C701.837 65.5165 702.915 66.5943 704.244 66.5943Z" fill="#FF7707"/>
<path d="M580.408 87.225C581.738 87.225 582.816 86.1472 582.816 84.8177C582.816 83.4882 581.738 82.4104 580.408 82.4104C579.079 82.4104 578.001 83.4882 578.001 84.8177C578.001 86.1472 579.079 87.225 580.408 87.225Z" fill="#FF7707"/>
<path d="M601.048 87.225C602.378 87.225 603.456 86.1472 603.456 84.8177C603.456 83.4882 602.378 82.4104 601.048 82.4104C599.719 82.4104 598.641 83.4882 598.641 84.8177C598.641 86.1472 599.719 87.225 601.048 87.225Z" fill="#FF7707"/>
<path d="M621.689 87.225C623.018 87.225 624.096 86.1472 624.096 84.8177C624.096 83.4882 623.018 82.4104 621.689 82.4104C620.359 82.4104 619.281 83.4882 619.281 84.8177C619.281 86.1472 620.359 87.225 621.689 87.225Z" fill="#FF7707"/>
<path d="M644.736 84.8177C644.736 86.1478 643.659 87.225 642.329 87.225C640.999 87.225 639.921 86.1478 639.921 84.8177C639.921 83.4876 640.999 82.4104 642.329 82.4104C643.659 82.4104 644.736 83.4876 644.736 84.8177Z" fill="#FF7707"/>
<path d="M662.969 87.225C664.298 87.225 665.376 86.1472 665.376 84.8177C665.376 83.4882 664.298 82.4104 662.969 82.4104C661.639 82.4104 660.562 83.4882 660.562 84.8177C660.562 86.1472 661.639 87.225 662.969 87.225Z" fill="#FF7707"/>
<path d="M683.609 87.225C684.939 87.225 686.016 86.1472 686.016 84.8177C686.016 83.4882 684.939 82.4104 683.609 82.4104C682.28 82.4104 681.202 83.4882 681.202 84.8177C681.202 86.1472 682.28 87.225 683.609 87.225Z" fill="#FF7707"/>
<path d="M704.244 87.225C705.574 87.225 706.652 86.1472 706.652 84.8177C706.652 83.4882 705.574 82.4104 704.244 82.4104C702.915 82.4104 701.837 83.4882 701.837 84.8177C701.837 86.1472 702.915 87.225 704.244 87.225Z" fill="#FF7707"/>
<path d="M580.408 107.734C581.738 107.734 582.816 106.656 582.816 105.327C582.816 103.997 581.738 102.919 580.408 102.919C579.079 102.919 578.001 103.997 578.001 105.327C578.001 106.656 579.079 107.734 580.408 107.734Z" fill="#FF7707"/>
<path d="M601.048 107.734C602.378 107.734 603.456 106.656 603.456 105.327C603.456 103.997 602.378 102.919 601.048 102.919C599.719 102.919 598.641 103.997 598.641 105.327C598.641 106.656 599.719 107.734 601.048 107.734Z" fill="#FF7707"/>
<path d="M621.689 107.734C623.018 107.734 624.096 106.656 624.096 105.327C624.096 103.997 623.018 102.919 621.689 102.919C620.359 102.919 619.281 103.997 619.281 105.327C619.281 106.656 620.359 107.734 621.689 107.734Z" fill="#FF7707"/>
<path d="M644.736 105.327C644.736 106.657 643.659 107.734 642.329 107.734C640.999 107.734 639.921 106.657 639.921 105.327C639.921 103.997 640.999 102.919 642.329 102.919C643.659 102.919 644.736 103.997 644.736 105.327Z" fill="#FF7707"/>
<path d="M662.969 107.734C664.298 107.734 665.376 106.656 665.376 105.327C665.376 103.997 664.298 102.919 662.969 102.919C661.639 102.919 660.562 103.997 660.562 105.327C660.562 106.656 661.639 107.734 662.969 107.734Z" fill="#FF7707"/>
<path d="M683.609 107.734C684.939 107.734 686.016 106.656 686.016 105.327C686.016 103.997 684.939 102.919 683.609 102.919C682.28 102.919 681.202 103.997 681.202 105.327C681.202 106.656 682.28 107.734 683.609 107.734Z" fill="#FF7707"/>
<path d="M704.244 107.734C705.574 107.734 706.652 106.656 706.652 105.327C706.652 103.997 705.574 102.919 704.244 102.919C702.915 102.919 701.837 103.997 701.837 105.327C701.837 106.656 702.915 107.734 704.244 107.734Z" fill="#FF7707"/>
<path d="M580.408 128.5C581.738 128.5 582.816 127.423 582.816 126.093C582.816 124.764 581.738 123.686 580.408 123.686C579.079 123.686 578.001 124.764 578.001 126.093C578.001 127.423 579.079 128.5 580.408 128.5Z" fill="#FF7707"/>
<path d="M601.048 128.5C602.378 128.5 603.456 127.423 603.456 126.093C603.456 124.764 602.378 123.686 601.048 123.686C599.719 123.686 598.641 124.764 598.641 126.093C598.641 127.423 599.719 128.5 601.048 128.5Z" fill="#FF7707"/>
<path d="M621.689 128.5C623.018 128.5 624.096 127.423 624.096 126.093C624.096 124.764 623.018 123.686 621.689 123.686C620.359 123.686 619.281 124.764 619.281 126.093C619.281 127.423 620.359 128.5 621.689 128.5Z" fill="#FF7707"/>
<path d="M644.736 126.093C644.736 127.423 643.659 128.5 642.329 128.5C640.999 128.5 639.921 127.423 639.921 126.093C639.921 124.763 640.999 123.686 642.329 123.686C643.659 123.686 644.736 124.763 644.736 126.093Z" fill="#FF7707"/>
<path d="M662.969 128.5C664.298 128.5 665.376 127.423 665.376 126.093C665.376 124.764 664.298 123.686 662.969 123.686C661.639 123.686 660.562 124.764 660.562 126.093C660.562 127.423 661.639 128.5 662.969 128.5Z" fill="#FF7707"/>
<path d="M683.609 128.5C684.939 128.5 686.016 127.423 686.016 126.093C686.016 124.764 684.939 123.686 683.609 123.686C682.28 123.686 681.202 124.764 681.202 126.093C681.202 127.423 682.28 128.5 683.609 128.5Z" fill="#FF7707"/>
<path d="M704.244 128.5C705.574 128.5 706.652 127.423 706.652 126.093C706.652 124.764 705.574 123.686 704.244 123.686C702.915 123.686 701.837 124.764 701.837 126.093C701.837 127.423 702.915 128.5 704.244 128.5Z" fill="#FF7707"/>
<path d="M32.6058 420.873C0.756974 403.724 11.3192 356.381 44.8139 354.926C78.3085 353.472 127.094 405.31 121.383 427.314C115.672 449.318 56.6231 433.808 32.6058 420.873Z" fill="#FFB8A4"/>
</svg>
