<svg width="102" height="394" viewBox="0 0 102 394" fill="none" xmlns="http://www.w3.org/2000/svg">
<circle opacity="0.4" cx="47" cy="18" r="17" stroke="#FDD13C" stroke-width="2"/>
<path opacity="0.3" d="M65 376C60.0299 376 56 380.029 56 385C56 389.971 60.029 394 65 394C69.97 394 74 389.971 74 385C74 380.029 69.9709 376 65 376ZM65 390.347C62.0472 390.347 59.6524 387.953 59.6524 385C59.6524 382.047 62.0463 379.652 65 379.652C67.9528 379.652 70.3476 382.046 70.3476 385C70.3476 387.953 67.9537 390.347 65 390.347Z" fill="#07A47C"/>
<circle cx="6" cy="112" r="6" fill="#FF8265"/>
<circle cx="94" cy="254" r="8" fill="#FDD13C"/>
</svg>
