<svg width="48" height="48" viewBox="0 0 48 48" fill="none" xmlns="http://www.w3.org/2000/svg">
<g clip-path="url(#clip0_20_12708)">
<path d="M22.5877 10.447C22.5877 7.79605 20.4386 5.64697 17.7877 5.64697H5.64648V36.7058H22.5877V10.447ZM18.4465 31.0587H9.88178V28.2352H18.4465V31.0587ZM18.4465 25.4117H9.88178V22.5881H18.4465V25.4117ZM18.4465 19.7646H9.88178V16.9411H18.4465V19.7646Z" fill="white"/>
<path d="M45.1765 9.88232V39.5294H26.8235H21.1765H2.82353V9.88232H0V42.3529H48V9.88232H45.1765Z" fill="#FFCB1B"/>
<path d="M29.8874 44.0001H18.2202C17.5546 43.9901 17.0101 44.5346 17 45.2001V48.4371H31.1176V45.2001C31.1076 44.5346 30.5529 43.9901 29.8874 44.0001Z" fill="#FFCB1B"/>
<path d="M42.3533 5.64697H30.2121C27.5612 5.64697 25.4121 7.79605 25.4121 10.447V36.7058H42.3533V5.64697ZM38.0239 31.0587H29.6474V28.2352H38.0239V31.0587ZM38.0239 25.4117H29.6474V22.5881H38.0239V25.4117ZM38.0239 19.7646H29.6474V16.9411H38.0239V19.7646Z" fill="white"/>
</g>
<defs>
<clipPath id="clip0_20_12708">
<rect width="48" height="48" fill="white"/>
</clipPath>
</defs>
</svg>
