<svg width="48" height="48" viewBox="0 0 48 48" fill="none" xmlns="http://www.w3.org/2000/svg">
<path d="M40.7578 38.2656H27.8672C26.446 38.2656 25.2891 39.4225 25.2891 40.8438H22.7109C22.7109 39.4225 21.554 38.2656 20.1328 38.2656H7.24219V14.8906H2V43.4219H18.31L20.8881 46H27.1119L29.69 43.4219H46V14.8906H40.7578V38.2656Z" fill="#FFCB1B"/>
<path d="M5.64844 5.86719L13.3828 9.73438H14.9765V2H13.3828L5.64844 5.86719Z" fill="white"/>
<path d="M17.5547 2H40.7578V9.73438H17.5547V2Z" fill="white"/>
<path d="M25.2891 14.8906V36.412C26.0514 35.9663 26.9224 35.6875 27.8672 35.6875H38.1797V12.3125H27.8672C26.446 12.3125 25.2891 13.4694 25.2891 14.8906ZM27.8672 17.5547H35.6016V20.1328H27.8672V17.5547ZM27.8672 22.7109H35.6016V25.2891H27.8672V22.7109ZM27.8672 27.8672H35.6016V30.4453H27.8672V27.8672Z" fill="white"/>
<path d="M9.82031 35.6875H20.1328C21.0776 35.6875 21.9486 35.9664 22.7109 36.412V14.8906C22.7109 13.4694 21.554 12.3125 20.1328 12.3125H9.82031V35.6875ZM12.3984 17.5547H20.1328V20.1328H12.3984V17.5547ZM12.3984 22.7109H20.1328V25.2891H12.3984V22.7109ZM12.3984 27.8672H20.1328V30.4453H12.3984V27.8672Z" fill="white"/>
</svg>
