<svg width="48" height="48" viewBox="0 0 48 48" fill="none" xmlns="http://www.w3.org/2000/svg">
<path d="M22.7901 20.874H19.6641V24.0001H22.7901V20.874Z" fill="#FF7707"/>
<path d="M13.6143 20.874H10.4883V24.0001H13.6143V20.874Z" fill="#FF7707"/>
<path d="M22.7901 30.958H19.6641V34.1849H22.7901V30.958Z" fill="#FF7707"/>
<path d="M22.4675 10.4874H10.8002C10.1347 10.4774 9.59016 11.0219 9.58008 11.6874V14.9244H23.6977V11.6874C23.6876 11.0219 23.133 10.4774 22.4675 10.4874Z" fill="white"/>
<path d="M13.6143 30.958H10.4883V34.1849H13.6143V30.958Z" fill="#FF7707"/>
<path d="M18.9682 41.2437H14.3094C13.6438 41.2537 13.1094 41.7983 13.1094 42.4739V48H20.1682V42.4739C20.1682 41.7983 19.6337 41.2537 18.9682 41.2437Z" fill="#FF7707"/>
<path d="M41.9495 37.1094H29.4453V41.9497H41.9495V37.1094Z" fill="#FFCB1B"/>
<path d="M41.9495 30.8569H29.4453V35.4956H41.9495V30.8569Z" fill="#FFCB1B"/>
<path d="M40.6991 24.3027H29.4453V29.2439H41.9495V25.5229C41.9495 24.8574 41.3646 24.3027 40.6991 24.3027Z" fill="#FFCB1B"/>
<path d="M41.9495 43.563H29.4453V48H41.9495V43.563Z" fill="#FFCB1B"/>
<path d="M26.592 16.5376H7.3012C6.61549 16.5578 6.07095 17.1124 6.05078 17.788V47.9998H11.4962V42.4737C11.4861 40.9107 12.7466 39.6401 14.3096 39.63H18.9684C20.5315 39.6401 21.792 40.9107 21.7819 42.4737V47.9998H27.8323V17.788C27.8222 17.1124 27.2777 16.5578 26.592 16.5376ZM15.3281 34.9914C15.3281 35.4351 14.9651 35.7981 14.5214 35.7981H9.68103C9.23734 35.7981 8.87431 35.4351 8.87431 34.9914V30.151C8.87431 29.7073 9.23734 29.3443 9.68103 29.3443H14.5214C14.9651 29.3443 15.3281 29.7073 15.3281 30.151V34.9914ZM15.3281 24.9073C15.3281 25.351 14.9651 25.7141 14.5214 25.7141H9.68103C9.23734 25.7141 8.87431 25.351 8.87431 24.9073V20.067C8.87431 19.6233 9.23734 19.2603 9.68103 19.2603H14.5214C14.9651 19.2603 15.3281 19.6233 15.3281 20.067V24.9073ZM24.5046 34.9914C24.5046 35.4351 24.1415 35.7981 23.6978 35.7981H18.8575C18.4138 35.7981 18.0508 35.4351 18.0508 34.9914V30.151C18.0508 29.7073 18.4138 29.3443 18.8575 29.3443H23.6978C24.1415 29.3443 24.5046 29.7073 24.5046 30.151V34.9914ZM24.5046 24.9073C24.5046 25.351 24.1415 25.7141 23.6978 25.7141H18.8575C18.4138 25.7141 18.0508 25.351 18.0508 24.9073V20.067C18.0508 19.6233 18.4138 19.2603 18.8575 19.2603H23.6978C24.1415 19.2603 24.5046 19.6233 24.5046 20.067V24.9073Z" fill="white"/>
<path d="M23.6374 4.55798L22.387 2.92437L23.6273 1.29076C23.8996 0.937815 23.829 0.433613 23.476 0.161345C23.3349 0.0504202 23.1634 0 22.9819 0H16.629C16.1853 0 15.8323 0.352941 15.8223 0.796639V0.806723V9.47899H17.4357V5.84874H17.4458H22.992C23.4357 5.84874 23.7987 5.48571 23.7987 5.04202C23.7987 4.87059 23.7382 4.69916 23.6374 4.55798Z" fill="#FFCB1B"/>
</svg>
