<svg width="509" height="303" viewBox="0 0 509 303" fill="none" xmlns="http://www.w3.org/2000/svg">
<path d="M41.4844 209.395V220.835L381.406 280.881L508.483 225.13V212.838L44.1937 209.395" fill="#D8A76C"/>
<path d="M378.588 266.959L41.4844 209.395L175.145 166.757L508.483 212.838L378.588 266.959Z" fill="#FDCF8D"/>
<path d="M254.433 237.583L185.775 226.327L238.807 202.387L307.465 213.642L254.433 237.583Z" fill="white"/>
<path d="M279.706 214.1L234.707 206.743L238.448 205.494L283.445 212.851L279.706 214.1Z" fill="#D8A76C"/>
<path d="M274.558 216.429L229.561 209.072L233.301 207.823L278.299 215.18L274.558 216.429Z" fill="#D8A76C"/>
<path d="M268.954 219.057L223.957 211.7L227.698 210.45L272.695 217.806L268.954 219.057Z" fill="#D8A76C"/>
<path d="M260.54 223.745L215.543 216.389L219.284 215.14L264.281 222.496L260.54 223.745Z" fill="#D8A76C"/>
<path d="M241.265 224.049L210.195 218.676L212.822 217.491L243.891 222.862L241.265 224.049Z" fill="#D8A76C"/>
<path d="M165.951 121.989C165.951 121.989 148.932 49.5763 169.866 0.668945C169.866 0.668945 194.159 71.4498 165.939 123.948" fill="#C8E2BF"/>
<path d="M172.241 66.6837C174.814 65.5164 176.792 62.9244 178.683 60.945C178.979 60.6342 179.266 60.316 179.56 60.0037C179.542 58.936 179.517 57.8742 179.481 56.8199C179.053 57.3032 178.626 57.788 178.191 58.2668C177.052 59.5219 175.892 60.7592 174.714 61.9756C174.237 62.4693 173.273 63.7512 172.294 64.5988C172.44 58.6847 172.537 52.769 172.586 46.8534C173.725 46.1218 174.453 44.9336 175.247 43.8242C176.219 42.465 177.192 41.1073 178.163 39.7481C178.01 38.4588 177.85 37.1859 177.68 35.9397C175.994 38.2982 174.306 40.6552 172.619 43.0138C172.64 38.3993 172.624 33.7864 172.586 29.1719C173.975 28.534 175.104 27.4112 176.135 26.2126C175.949 25.1806 175.759 24.1753 175.566 23.1924C174.577 24.3211 173.578 25.4408 172.564 26.5428C172.5 20.5736 172.384 14.6059 172.221 8.63825C170.864 3.57323 169.867 0.668945 169.867 0.668945C169.405 1.75006 168.967 2.84753 168.54 3.95095C168.788 11.5202 168.961 19.091 169.048 26.6632C168.956 26.6023 168.861 26.5398 168.763 26.4773C167.425 25.6193 166.096 24.7464 164.762 23.8809C164.196 23.5136 163.63 23.1463 163.063 22.7775C162.85 23.7976 162.65 24.8222 162.457 25.8483C163.47 26.5056 164.481 27.1644 165.493 27.8187C166.706 28.6024 167.841 29.2924 169.069 29.5749C169.112 34.4585 169.126 39.3406 169.102 44.2242C168.759 43.909 168.464 43.6235 168.334 43.5238C166.786 42.3342 165.237 41.146 163.689 39.9563C162.691 39.1905 161.694 38.4246 160.696 37.6588C160.562 38.8484 160.444 40.0396 160.331 41.2292C161.445 42.0843 162.558 42.9379 163.671 43.793C165.383 45.1076 167.092 46.9084 169.074 47.4304C169.029 52.9401 168.942 58.4482 168.811 63.9564C168.216 63.2322 167.666 62.4202 167.276 61.9905C166.09 60.6878 164.902 59.3836 163.716 58.0809C162.33 56.5596 160.946 55.0368 159.56 53.5156C159.506 55.1023 159.468 56.6831 159.447 58.2549C160.563 59.4803 161.68 60.7056 162.796 61.9325C164.58 63.8925 166.262 66.5216 168.732 67.1313C168.601 72.0476 168.435 76.964 168.236 81.8788C165.636 77.5915 162.743 73.5109 159.561 69.6549C159.625 71.6699 159.71 73.6567 159.815 75.6092C162.753 79.5961 165.416 83.7882 167.774 88.1885C167.821 88.2747 167.888 88.3372 167.958 88.3952C167.837 90.9783 167.708 93.5613 167.57 96.1429C167.554 96.1251 167.536 96.1013 167.52 96.0834C166.343 94.7391 165.164 93.3933 163.986 92.049C162.917 90.8281 161.847 89.6072 160.778 88.3863C160.976 90.431 161.189 92.4118 161.411 94.3227C161.72 94.6767 162.031 95.0306 162.34 95.383C163.856 97.114 165.326 99.3952 167.316 100.519C166.906 107.573 166.43 114.621 165.879 121.666C165.925 121.87 165.952 121.986 165.952 121.986L165.94 123.945C167.351 121.322 168.624 118.651 169.781 115.948C170.143 111.008 170.469 106.066 170.76 101.122C172.254 100.906 173.778 100.339 175.283 99.6346C175.558 98.5654 175.817 97.4932 176.061 96.421C175.056 96.8582 174.048 97.2835 173.034 97.6865C172.492 97.9021 171.672 98.3066 170.915 98.4762C171.124 94.7986 171.318 91.121 171.488 87.442C173.897 85.824 176.232 84.1064 178.486 82.2907C178.627 81.107 178.748 79.9247 178.861 78.7455C176.54 80.7709 174.125 82.6878 171.615 84.4856C171.875 78.5566 172.084 72.6202 172.241 66.6837Z" fill="#7CB966"/>
<path d="M166.913 144.528C166.913 144.528 163.957 70.1292 193.778 26.272C193.778 26.272 204.18 100.506 166.529 146.449" fill="#C8E2BF"/>
<path d="M195.079 52.5696C195.092 51.5212 195.096 50.4966 195.093 49.4943C193.909 50.4074 192.715 51.3086 191.511 52.1904C192.581 46.3224 193.601 40.4439 194.572 34.5565C194.205 29.3175 193.779 26.272 193.779 26.272C193.119 27.2416 192.482 28.232 191.854 29.2298C190.662 36.7054 189.394 44.1676 188.042 51.6134C187.963 51.5361 187.881 51.4558 187.798 51.3755C186.649 50.2706 185.511 49.1508 184.367 48.04C183.881 47.5671 183.395 47.0957 182.909 46.6228C182.506 47.5819 182.115 48.5471 181.732 49.5166C182.6 50.3598 183.466 51.206 184.337 52.0491C185.378 53.0559 186.361 53.9586 187.512 54.4776C186.627 59.2764 185.715 64.0708 184.763 68.8562C184.488 68.48 184.251 68.1409 184.143 68.0175C182.849 66.5453 181.557 65.0731 180.262 63.6023C179.429 62.6536 178.596 61.7063 177.763 60.7575C177.406 61.8981 177.063 63.0432 176.729 64.1882C177.658 65.2456 178.589 66.3044 179.518 67.3617C180.948 68.9886 182.283 71.0943 184.129 71.9954C183.039 77.3921 181.908 82.7798 180.735 88.1586C180.287 87.3303 179.904 86.4247 179.602 85.928C178.685 84.4156 177.768 82.9032 176.851 81.3909C175.78 79.6242 174.709 77.8575 173.64 76.0924C173.287 77.6389 172.948 79.1825 172.63 80.7187C173.493 82.1418 174.355 83.5635 175.217 84.9866C176.596 87.2619 177.747 90.1736 180.055 91.2577C178.993 96.055 177.897 100.846 176.77 105.627C175.033 100.907 172.969 96.3346 170.578 91.9239C170.258 93.9136 169.965 95.8796 169.696 97.8157C171.822 102.307 173.639 106.945 175.118 111.727C175.147 111.821 175.201 111.895 175.26 111.967C174.651 114.477 174.035 116.986 173.408 119.492C173.396 119.471 173.383 119.444 173.372 119.423C172.471 117.872 171.571 116.32 170.669 114.769C169.852 113.36 169.034 111.951 168.217 110.542C168.023 112.588 167.857 114.574 167.712 116.492C167.948 116.9 168.186 117.308 168.423 117.716C169.583 119.713 170.589 122.241 172.328 123.736C170.588 130.575 168.783 137.398 166.905 144.199C166.913 144.408 166.917 144.527 166.917 144.527L166.533 146.446C168.415 144.15 170.171 141.781 171.821 139.356C173.112 134.581 174.37 129.797 175.595 125.004C177.102 125.087 178.704 124.832 180.314 124.438C180.785 123.443 181.244 122.442 181.686 121.438C180.617 121.669 179.548 121.887 178.477 122.084C177.905 122.188 177.023 122.424 176.247 122.44C177.149 118.874 178.039 115.304 178.904 111.727C181.576 110.615 184.192 109.391 186.748 108.054C187.111 106.92 187.455 105.785 187.789 104.649C185.128 106.179 182.396 107.583 179.591 108.851C180.97 103.08 182.301 97.2982 183.583 91.5045C186.329 90.8666 188.761 88.7133 190.992 87.1444C191.341 86.899 191.684 86.6433 192.031 86.3934C192.216 85.3421 192.393 84.2951 192.558 83.2542C192.045 83.6453 191.535 84.0364 191.018 84.4201C189.661 85.4268 188.29 86.4113 186.902 87.3734C186.341 87.763 185.152 88.8308 184.03 89.4702C185.296 83.6973 186.514 77.9126 187.684 72.1174C188.941 71.6237 189.88 70.602 190.871 69.6696C192.082 68.529 193.294 67.387 194.505 66.2464C194.6 64.9511 194.683 63.6707 194.753 62.4141C192.651 64.3949 190.547 66.3757 188.445 68.3565C189.34 63.8343 190.2 59.3046 191.039 54.769C192.518 54.421 193.84 53.5422 195.079 52.5696Z" fill="#7CB966"/>
<path d="M167.495 141.061C167.495 141.061 134.643 89.8303 137.549 46.0713C137.549 46.0713 175.588 93.9852 168.019 142.58" fill="#C8E2BF"/>
<path d="M165.547 123.556C166.644 122.967 167.669 122.099 168.643 121.129C168.564 120.223 168.473 119.322 168.371 118.423C167.712 119.044 167.048 119.658 166.372 120.258C166.012 120.577 165.488 121.122 164.947 121.467C164.108 118.562 163.26 115.661 162.392 112.766C163.816 110.834 165.157 108.846 166.407 106.804C166.194 105.848 165.968 104.899 165.733 103.955C164.487 106.178 163.139 108.343 161.686 110.443C160.272 105.778 158.821 101.126 157.33 96.4865C159.003 94.8567 159.83 92.2929 160.754 90.2274C160.898 89.9032 161.034 89.576 161.177 89.2518C160.873 88.431 160.566 87.616 160.25 86.81C160.051 87.3052 159.852 87.8004 159.646 88.2942C159.105 89.5879 158.545 90.8713 157.964 92.1457C157.729 92.6617 157.331 93.9258 156.804 94.8596C155.31 90.2422 153.778 85.6367 152.207 81.0446C152.89 80.1568 153.13 79.0311 153.443 77.9485C153.826 76.622 154.209 75.297 154.592 73.9705C154.124 73.0158 153.653 72.076 153.183 71.1599C152.518 73.4605 151.854 75.7625 151.189 78.063C149.951 74.4865 148.683 70.9205 147.4 67.3619C148.301 66.4756 148.869 65.2874 149.341 64.0695C148.917 63.3245 148.497 62.6003 148.081 61.8939C147.621 63.0464 147.153 64.1959 146.669 65.335C144.997 60.734 143.285 56.1478 141.536 51.5765C139.109 48.0387 137.55 46.0713 137.55 46.0713C137.486 47.0394 137.445 48.0119 137.414 48.986C139.664 54.7737 141.855 60.5838 143.981 66.4191C143.894 66.3983 143.803 66.376 143.71 66.3552C142.442 66.0696 141.175 65.7692 139.909 65.4748C139.371 65.3499 138.832 65.225 138.294 65.1015C138.406 65.9507 138.53 66.8013 138.66 67.6489C139.622 67.8705 140.583 68.0965 141.546 68.3166C142.697 68.5798 143.764 68.794 144.791 68.6661C146.151 72.4329 147.49 76.2071 148.797 79.9932C148.447 79.846 148.141 79.7092 148.014 79.6676C146.492 79.1843 144.97 78.701 143.45 78.2191C142.47 77.9083 141.491 77.5975 140.51 77.2852C140.729 78.2444 140.961 79.1991 141.199 80.1509C142.293 80.4974 143.386 80.8453 144.48 81.1918C146.162 81.7257 147.974 82.6373 149.649 82.4811C151.113 86.758 152.543 91.0453 153.939 95.3444C153.281 94.9518 152.634 94.479 152.216 94.2574C150.943 93.5837 149.671 92.9101 148.399 92.2364C146.914 91.4497 145.427 90.6631 143.942 89.8764C144.331 91.1196 144.732 92.3539 145.142 93.5748C146.339 94.2083 147.535 94.8418 148.733 95.4753C150.647 96.488 152.664 98.048 154.74 97.8219C155.974 101.663 157.182 105.515 158.364 109.374C155.186 106.789 151.839 104.448 148.327 102.363C148.924 103.904 149.531 105.418 150.142 106.899C153.5 109.155 156.699 111.647 159.721 114.387C159.781 114.44 159.849 114.47 159.919 114.495C160.528 116.528 161.13 118.562 161.724 120.601C161.707 120.591 161.686 120.579 161.67 120.568C160.393 119.861 159.115 119.153 157.839 118.445C156.679 117.802 155.52 117.159 154.36 116.516C155.07 118.043 155.773 119.516 156.464 120.931C156.8 121.117 157.135 121.303 157.473 121.49C159.117 122.402 160.873 123.752 162.718 124.06C164.317 129.634 165.865 135.224 167.354 140.83C167.445 140.974 167.497 141.056 167.497 141.056L168.021 142.576C168.399 140.147 168.659 137.72 168.819 135.301C167.756 131.381 166.664 127.466 165.547 123.556Z" fill="#7CB966"/>
<path d="M193.691 136.74H143.943V187.445H193.691V136.74Z" fill="#304858"/>
<path d="M168.796 173.544C164.005 173.617 154.436 160.915 159.361 156.535C164.006 152.406 168.294 158.642 168.294 158.642C168.294 158.642 173.258 152.736 177.131 155.701C183.244 160.382 173.643 173.47 168.796 173.544Z" fill="#E55E4A"/>
<path d="M196.824 15.6663L200.409 13.8521L401.86 40.4873V177.023L396.803 179.371L196.824 15.6663Z" fill="#253946"/>
<path d="M243.482 194.256V199.17L314.422 209.329L345.677 198.75V194.845L244.049 194.256" fill="#253946"/>
<path d="M313.834 204.113L243.482 194.257L275.325 184.989L345.677 194.846L313.834 204.113Z" fill="#304858"/>
<path d="M301.599 196.529L289.459 195.061V143.886H301.599V196.529Z" fill="#304858"/>
<path d="M396.803 179.371L196.824 152.394V15.6665L396.803 42.6452V179.371Z" fill="#304858"/>
<path d="M296.427 32.991C297.307 32.991 298.021 32.2633 298.021 31.3656C298.021 30.4679 297.307 29.7402 296.427 29.7402C295.546 29.7402 294.832 30.4679 294.832 31.3656C294.832 32.2633 295.546 32.991 296.427 32.991Z" fill="#102328"/>
<path d="M296.429 32.5149C297.051 32.5149 297.556 32.0002 297.556 31.3653C297.556 30.7305 297.051 30.2158 296.429 30.2158C295.806 30.2158 295.301 30.7305 295.301 31.3653C295.301 32.0002 295.806 32.5149 296.429 32.5149Z" fill="#3A464A"/>
<path d="M389.503 170.759L203.352 146.92V22.4639L389.503 46.3034V170.759Z" fill="white"/>
<g clip-path="url(#clip0_20_13338)">
<path d="M347.583 153.784C347.209 156.574 320.866 155.345 288.746 151.033C256.627 146.722 230.892 140.965 231.267 138.171C231.641 135.38 257.984 136.61 290.104 140.921C322.223 145.233 347.958 150.993 347.583 153.784Z" fill="#CCD7F3"/>
<path d="M271.756 77.7384C272.191 78.1408 272.187 78.8726 273.061 79.1753C272.136 79.2717 271.919 79.9484 271.423 80.2906C271.417 80.2045 271.413 80.1188 271.408 80.0298L271.335 79.823L271.353 79.8196C271.283 79.3984 271.064 79.1014 270.642 78.98C270.635 78.9026 270.628 78.8222 270.624 78.7452C271.273 78.7117 271.625 78.3443 271.76 77.733L271.756 77.7384Z" fill="white"/>
<path d="M303.623 48.8334C302.92 48.9626 302.639 49.4395 302.326 49.9475C302.304 49.3446 302.1 48.8936 301.543 48.5718C302.101 48.3614 302.5 48.0414 302.676 47.3444C302.8 48.0376 303.036 48.5135 303.623 48.8334Z" fill="white"/>
<path d="M284.51 61.1625C284.585 61.0461 284.749 60.9387 284.544 60.7994C284.903 60.6064 285.11 60.2872 285.304 59.7426C285.428 60.421 285.629 60.895 286.262 61.2006C285.597 61.3789 285.247 61.729 284.98 62.4667C284.904 61.8448 284.791 61.4619 284.51 61.1625Z" fill="white"/>
<path d="M276.944 111.714C277.007 112.49 277.476 112.965 278.262 113.379C277.171 113.553 276.659 114.255 276.251 115.186C276.228 114.741 276.221 114.402 276.068 114.093C275.94 113.65 275.567 113.464 275.205 113.266C275.055 113.184 274.985 113.024 275.005 112.874C275.049 112.571 275.231 112.834 275.343 112.811C276.186 112.647 276.516 111.989 276.789 111.181C276.86 111.42 276.902 111.567 276.944 111.714Z" fill="white"/>
<path d="M290.968 73.0375C289.988 73.1265 289.601 73.857 289.253 74.6573C289.121 74.1925 289.194 73.6906 288.841 73.3225C288.774 73.2254 288.708 73.1282 288.641 73.0311C288.534 72.846 288.379 72.7282 288.17 72.6854L287.763 72.4926L287.792 72.4553L287.758 72.4213C287.911 72.3978 288.062 72.3739 288.215 72.3503C288.49 72.3608 288.709 72.2431 288.904 72.0604C288.969 71.9927 289.034 71.9278 289.099 71.8601L289.088 71.8763C289.163 71.7775 289.237 71.6817 289.312 71.5829L289.293 71.595C289.471 71.4748 289.533 71.2949 289.56 71.0956C289.616 71.0118 289.671 70.9281 289.749 70.8091C289.916 71.2315 289.822 71.7571 290.25 72.0528L290.26 72.0659C290.225 72.5849 291.012 72.5082 290.968 73.0375Z" fill="white"/>
<path d="M314.032 64.1453C313.934 64.2616 313.823 64.3673 313.744 64.4949C313.665 64.6225 313.613 64.7656 313.498 65.0148C313.296 64.3643 313.305 63.7095 312.742 63.3457C312.682 63.2229 312.573 63.1789 312.447 63.1709L312.458 63.1811C312.628 63.051 311.842 62.9925 312.437 62.8078C313.027 62.6251 313.502 62.2831 313.624 61.6142C313.769 61.5894 313.817 61.4959 313.817 61.3606C313.919 61.3713 314.045 61.3707 314.054 61.5013C314.108 62.3967 314.687 62.9245 315.357 63.3909C314.825 63.4782 314.432 63.8167 314.032 64.1453Z" fill="white"/>
<path d="M273.72 102.402C273.596 102.344 273.519 102.257 273.539 102.11C274.511 102.126 274.906 101.435 275.311 100.524C275.476 101.529 275.8 102.278 276.842 102.642C275.812 102.842 275.216 103.297 274.967 104.14C274.757 104.262 274.757 104.262 274.676 103.877C274.655 103.195 274.343 102.697 273.72 102.402Z" fill="white"/>
<path d="M310.084 89.0126C309.28 89.1518 309.016 89.8194 308.659 90.5067C308.3 89.7174 308.367 88.6705 307.185 88.4735C308.264 88.3036 308.832 87.6887 309.147 86.5663C309.311 87.65 309.563 88.4691 310.547 88.7659C310.394 88.8484 310.239 88.9305 310.084 89.0126Z" fill="white"/>
<path d="M286.12 95.4369C286.002 95.6358 285.884 95.8318 285.729 96.0933C285.661 95.1489 285.394 94.3749 284.354 93.947C284.901 93.7998 285.341 93.7177 285.612 93.3424C285.962 93.0863 286.047 92.6684 286.275 92.2402C286.394 93.1738 286.719 93.9086 287.646 94.3683C286.948 94.5745 286.401 94.8335 286.12 95.4369Z" fill="white"/>
<path d="M295.94 91.317C295.185 91.5246 294.803 91.9203 294.478 92.6708C294.375 91.8863 294.186 91.3611 293.416 91.0076C294.245 90.8366 294.624 90.4228 294.857 89.8069C294.97 90.4545 295.235 90.9606 295.94 91.317Z" fill="white"/>
<path d="M309.744 75.3048C309.677 75.4546 309.543 75.5131 309.401 75.5617C308.877 75.6943 308.691 76.1782 308.39 76.5555C308.325 76.4291 308.269 76.3186 308.213 76.2082C308.256 75.6492 307.838 75.4079 307.376 75.0811C308.116 74.9186 308.561 74.5195 308.689 73.825C308.718 73.8054 308.742 73.7792 308.761 73.7494C308.838 74.4273 309.012 75.0389 309.744 75.3048Z" fill="white"/>
<path d="M320.574 104.814C320.961 104.587 320.93 104.089 321.258 103.753C321.324 104.709 321.682 105.437 322.647 105.857C321.8 106.073 321.175 106.451 320.912 107.248C320.747 107.558 320.632 107.54 320.611 107.19C320.564 106.36 320.122 105.815 319.362 105.452C319.814 105.283 320.297 105.236 320.574 104.814Z" fill="white"/>
<path d="M313.718 113.065C312.887 113.245 312.527 113.667 312.184 114.359C312.068 113.629 311.879 113.086 311.12 112.752C311.91 112.59 312.32 112.186 312.568 111.325C312.699 112.172 312.906 112.712 313.718 113.065Z" fill="white"/>
<path d="M281.711 84.1686C280.947 84.3338 280.571 84.8098 280.237 85.5209C280.19 84.7145 279.946 84.1612 279.164 83.8268C280.007 83.7105 280.401 83.2722 280.632 82.515C280.784 83.2501 281.017 83.8137 281.711 84.1686Z" fill="white"/>
<path d="M307.779 99.0262C308.4 98.8301 308.834 98.5766 309.02 97.9752C309.172 98.5131 309.379 98.9645 309.969 99.2584C309.355 99.4701 308.983 99.7907 308.712 100.513C308.608 99.758 308.451 99.2576 307.779 99.0262Z" fill="white"/>
<path d="M288.432 114.821C288.432 114.821 288.431 114.823 288.432 114.821C287.849 114.887 287.532 115.273 287.217 116.025C287.157 115.264 286.999 114.796 286.349 114.509C286.95 114.307 287.334 114.014 287.562 113.498C287.658 114.093 288.075 114.434 288.432 114.821Z" fill="white"/>
<path d="M298.823 79.4776C298.979 80.1132 299.157 80.5636 299.893 80.8505C299.136 80.9636 298.807 81.3313 298.52 81.9162C298.349 81.3463 298.245 80.8293 297.446 80.5751C298.217 80.4462 298.547 80.0876 298.823 79.4776Z" fill="white"/>
<path d="M293.07 129.517C292.997 129.01 292.393 128.885 292.268 128.412C293.012 128.371 293.339 127.883 293.546 127.178C293.741 127.828 293.885 128.467 294.712 128.811C293.904 128.979 293.538 129.424 293.231 130.05C293.156 129.799 293.113 129.658 293.07 129.517Z" fill="white"/>
<path d="M297.312 107.986C297.253 108.096 297.195 108.206 297.05 108.469C296.964 107.404 296.702 106.59 295.53 106.206C296.715 106.121 297.236 105.511 297.579 104.619C297.711 105.519 298.096 106.227 298.898 106.649C298.881 106.667 298.869 106.692 298.849 106.707C298.83 106.722 298.805 106.734 298.782 106.748C298.045 106.87 297.587 107.317 297.312 107.986Z" fill="white"/>
<path d="M324.207 96.39C324.31 95.6891 323.679 95.3926 323.388 94.9094C324.114 94.9099 324.38 94.375 324.661 93.7539C324.819 94.3928 324.993 94.9602 325.739 95.3015C324.908 95.4429 324.823 96.208 324.289 96.5039C324.283 96.506 324.254 96.4786 324.242 96.4594C324.227 96.4397 324.219 96.4122 324.207 96.39Z" fill="white"/>
<path d="M309.014 125.789C308.991 124.907 308.735 124.381 307.994 124.029C308.796 123.904 309.193 123.472 309.429 122.68C309.55 123.461 309.797 124.015 310.515 124.362C309.725 124.547 309.345 125.013 309.014 125.789Z" fill="white"/>
<path d="M277.367 74.5328C277.866 74.4321 277.81 73.7981 278.235 73.6288C278.504 73.3149 278.855 73.1796 279.253 73.1478C279.272 72.8739 278.98 72.864 278.873 72.6967C278.187 72.3017 278.135 71.5741 277.975 70.7497C277.659 71.8486 277.118 72.5053 275.899 72.6034C276.955 72.9981 277.358 73.6317 277.367 74.5328Z" fill="white"/>
<path d="M266.109 90.1332C266.01 90.2964 265.946 90.4025 265.882 90.5086C265.676 90.9869 265.244 91.1641 264.744 91.3118C265.565 91.5337 265.527 92.3169 265.871 92.8277C266.009 92.411 266.193 92.0297 266.654 91.8799C266.709 91.846 266.766 91.8126 266.821 91.7787C266.936 91.7501 267.052 91.7186 267.165 91.6897C267.154 91.6176 267.141 91.5423 267.13 91.4702C266.404 91.3522 266.422 90.6253 266.109 90.1332Z" fill="white"/>
<path d="M296.548 54.1841C296.909 53.559 297.274 53.0756 298.101 52.8984C297.3 52.5704 297.082 52.0086 296.954 51.268C296.674 51.9745 296.347 52.4836 295.56 52.5809C296.29 52.8641 296.423 53.4703 296.548 54.1841Z" fill="white"/>
<path d="M283.431 62.288C283.695 61.6616 283.984 61.2798 284.513 61.1596C284.587 61.0431 284.754 60.9361 284.547 60.7965C283.97 60.5309 283.934 59.9466 283.743 59.3768C283.508 60.0483 283.164 60.5521 282.428 60.7092C283.099 61.0168 283.203 61.622 283.431 62.288Z" fill="white"/>
<path d="M320.611 107.193C320.563 106.363 320.122 105.818 319.361 105.455C319.814 105.286 320.297 105.239 320.574 104.817C319.967 103.071 319.21 101.411 317.93 100.03C315.898 97.8457 313.399 96.5425 310.481 96.0068C310.303 95.9741 310.126 95.9327 309.949 95.8942C308.559 95.7959 307.175 95.6719 305.776 95.8341C304.287 96.0078 302.806 96.1972 301.356 96.5643C298.539 97.2745 295.758 98.1776 292.826 98.2547C290.189 98.3243 287.729 97.8647 286.122 95.4372C286.004 95.6361 285.886 95.8321 285.73 96.0935C285.663 95.1492 285.396 94.3751 284.356 93.9473C284.902 93.8 285.343 93.718 285.614 93.3426C285.558 90.0792 288.217 86.9067 291.381 86.4637C294.448 86.0342 296.92 88.9719 295.969 91.9148C295.571 93.1438 294.577 93.5339 293.454 92.892C293.047 92.6579 292.68 92.3704 292.355 92.0239C292.068 91.7118 291.767 91.4126 291.379 91.0106C291.348 91.6799 291.515 92.1464 291.647 92.6141C292.316 94.9893 293.635 96.1074 296.094 96.2875C298.331 96.4525 300.312 95.7008 302.135 94.4453C304.54 92.7859 305.88 90.4598 306.105 87.5988C306.259 85.6137 305.742 83.6796 304.877 81.8634C303.316 78.5863 300.938 76.0877 297.712 74.4077C295.557 73.4978 293.304 73.0748 290.97 73.038C289.99 73.1299 289.604 73.8575 289.255 74.6578C289.123 74.193 289.196 73.6911 288.845 73.3234C288.697 73.3329 288.549 73.3424 288.4 73.3519C287.759 73.5276 287.114 73.7029 286.473 73.8785C286.296 73.9489 286.119 74.0192 285.942 74.0895C285.515 74.2646 285.088 74.4397 284.662 74.6148L284.641 74.5973C284.562 74.7191 284.464 74.7913 284.313 74.7385L284.314 74.7534C284.226 74.9858 284.011 75.0334 283.811 75.1035C283.494 75.3139 283.177 75.5244 282.861 75.7319C282.16 76.329 281.462 76.9294 280.761 77.5265C280.711 77.5698 280.66 77.616 280.61 77.6593C279.901 78.6229 279.192 79.5866 278.483 80.5502C278.481 80.594 278.461 80.6325 278.428 80.6604C278.219 81.1206 278.006 81.5833 277.688 81.9817L277.569 82.2775C277.476 82.5945 277.364 82.903 277.153 83.1628C277.119 83.2641 277.087 83.3687 277.053 83.47L276.875 83.9167C276.829 84.0194 276.78 84.1187 276.734 84.2213C276.41 85.3632 276.021 86.4903 275.774 87.6483C275.314 89.8042 275.272 91.9781 275.723 94.1473L275.802 94.4814L275.835 94.5388L275.786 94.5735C275.736 94.5991 275.688 94.6221 275.638 94.6477C275.64 95.0303 276.156 95.082 276.165 95.4595C276.579 96.2534 276.996 97.0447 277.413 97.8389C277.694 98.1384 277.985 98.4274 278.255 98.7372C280.875 101.712 284.085 103.484 288.114 103.608C288.585 103.5 289.073 103.722 289.537 103.528L289.873 103.503C289.979 103.502 290.085 103.502 290.188 103.504C290.722 103.405 291.256 103.306 291.793 103.207C291.906 103.178 292.018 103.152 292.131 103.123C292.178 103.1 292.227 103.089 292.279 103.093C294.615 102.483 296.944 101.855 299.4 102.211C302.983 102.727 305.581 105.861 305.415 109.483C305.293 112.125 303.016 114.096 300.376 113.883C298.664 113.744 297.163 113.072 295.756 112.157C294.451 111.308 293.18 110.408 291.895 109.53C291.845 109.482 291.796 109.434 291.746 109.386L291.751 109.399C291.543 109.347 291.393 109.236 291.33 109.022C290.936 108.978 290.597 108.806 290.299 108.548C290.15 108.475 290.001 108.402 289.852 108.332C289.78 108.275 289.708 108.221 289.636 108.165C289.508 108.133 289.379 108.104 289.254 108.072L289.18 108.074L289.11 108.05C288.765 108.033 288.507 107.807 288.21 107.67C287.93 107.615 287.647 107.574 287.371 107.502C285.078 106.918 282.894 107.228 280.777 108.246C279.154 109.026 277.992 110.299 276.952 111.712C277.015 112.488 277.484 112.963 278.27 113.377C277.179 113.552 276.667 114.253 276.259 115.184C276.237 114.74 276.229 114.401 276.076 114.092C275.562 115.973 275.609 117.838 276.259 119.678C277.062 121.942 278.558 123.425 280.988 123.886C282.382 124.153 283.774 124.084 285.173 124.01C286.723 123.927 288.276 123.756 289.828 123.985C291.809 124.003 293.674 124.442 295.397 125.462C298.305 127.184 299.063 130.262 297.279 133.144C296.591 134.254 295.634 135.14 294.84 136.163C294.881 136.213 294.921 136.265 294.958 136.314C300.186 134.413 301.869 129.177 300.222 124.759C299.511 122.849 297.924 121.915 296.176 121.172C294.341 120.393 292.372 119.958 290.598 119.017C289.93 118.663 289.291 118.274 288.816 117.672C288.124 116.8 287.762 115.881 288.439 114.825C287.857 114.888 287.537 115.277 287.221 116.026C287.162 115.265 287.001 114.796 286.354 114.51C286.955 114.308 287.338 114.015 287.566 113.499C287.666 114.097 288.082 114.438 288.439 114.822C289.817 113.568 291.357 113.56 293.073 114.035C295.218 114.629 296.825 115.959 298.432 117.386C299.541 118.371 300.567 119.455 301.831 120.272C302.803 120.9 303.85 121.32 304.927 121.694C307.692 122.138 310.419 121.945 313.11 121.189C316.008 120.375 318.124 118.621 319.391 115.888C320.662 113.15 321.261 110.283 320.92 107.255C320.747 107.561 320.632 107.543 320.611 107.193ZM298.824 79.4774C298.98 80.1131 299.158 80.5634 299.893 80.8504C299.139 80.9639 298.807 81.3311 298.52 81.9161C298.349 81.3461 298.245 80.8292 297.447 80.5749C298.217 80.446 298.548 80.0874 298.824 79.4774ZM280.238 85.521C280.19 84.7146 279.947 84.1613 279.165 83.827C280.007 83.7106 280.401 83.2724 280.632 82.5152C280.781 83.2498 281.014 83.8135 281.709 84.1655C280.948 84.331 280.572 84.807 280.238 85.521ZM308.708 100.513C308.607 99.7553 308.451 99.2548 307.778 99.0263C308.399 98.8302 308.836 98.5771 309.02 97.9753C309.171 98.5133 309.378 98.9646 309.968 99.2586C309.351 99.4699 308.982 99.7909 308.708 100.513ZM312.187 114.359C312.07 113.632 311.882 113.086 311.123 112.752C311.913 112.59 312.323 112.183 312.571 111.326C312.699 112.172 312.906 112.712 313.72 113.065C312.887 113.247 312.527 113.667 312.187 114.359Z" fill="#FFB401"/>
<path d="M291.32 109.017L291.32 109.021L291.324 109.022L291.32 109.017Z" fill="white"/>
<path d="M308.458 83.58C308.456 83.5737 308.451 83.564 308.449 83.5576C308.448 83.5665 308.449 83.5788 308.448 83.5877L308.458 83.58Z" fill="white"/>
<path d="M303.175 71.8113C304.044 73.7281 306.054 75.4154 308.686 73.8246C308.715 73.805 308.739 73.7788 308.758 73.749C309.508 73.0732 310.116 72.3136 310.273 71.2758C310.468 69.9727 309.838 69.2734 308.525 69.3706C308.011 69.4075 307.502 69.5186 306.916 69.6076C307.094 68.8698 307.524 68.4069 308.204 68.2099C309.677 67.7811 311.474 68.7076 312.022 70.1488C312.685 71.8937 312.346 73.1923 310.902 74.3897C310.521 74.7063 310.128 75.0035 309.741 75.3073C309.676 75.4575 309.542 75.516 309.397 75.5642C309.061 76.0308 308.727 76.5007 308.393 76.9706C308.324 77.1378 308.254 77.3049 308.188 77.4724L308.197 77.5148L308.155 77.5387C307.406 79.5882 307.73 81.5845 308.45 83.5606C308.477 83.0525 308.504 82.5443 308.528 82.0387C308.629 80.0816 308.892 78.1847 310.534 76.8285C311.421 76.0917 312.474 75.6331 313.501 75.1297C315.648 74.0827 317.065 72.4934 317.04 69.987C317.014 67.566 316.15 65.5206 314.03 64.1508C313.932 64.267 313.824 64.3731 313.742 64.5003C313.664 64.6251 313.612 64.7711 313.496 65.0202C313.292 64.3693 313.303 63.7149 312.74 63.3511C312.642 63.2938 312.544 63.2365 312.446 63.1763L312.456 63.1865C311.43 62.9165 310.411 62.615 309.338 62.5857C307.943 62.5484 306.613 62.7876 305.435 63.5824C303.598 64.824 302.83 66.665 302.583 68.7849C302.657 69.8125 302.737 70.8437 303.175 71.8113Z" fill="#FFB401"/>
<path d="M274.676 103.881C274.215 103.478 273.857 103.012 273.721 102.402C273.596 102.344 273.52 102.258 273.539 102.11C273.437 101.623 273.287 101.141 273.349 100.632C273.315 100.536 273.303 100.385 273.237 100.355C273.081 100.284 273.12 100.46 273.099 100.528C272.941 101.021 272.811 101.53 272.411 101.9C272.313 102.107 272.262 102.357 272.109 102.51C271.796 102.823 271.596 103.367 270.979 103.19C270.947 103.271 270.916 103.349 270.885 103.431C270.402 103.804 269.756 103.688 269.143 103.953C271.118 104.497 272.164 106.152 272.079 108.435C272.88 106.56 273.955 104.998 276.309 104.864C275.785 104.582 275.376 104.363 274.967 104.143C274.754 104.262 274.754 104.262 274.676 103.881Z" fill="white"/>
<path d="M294.013 66.3082C295.47 66.9391 296.14 67.932 296.165 69.3442C296.115 69.4081 296.063 69.4687 296.013 69.5326C296.29 69.8609 296.375 69.7341 296.495 69.3884C296.799 68.4999 297.368 67.8116 298.225 67.3913C298.568 67.2226 299.022 67.3277 299.315 66.9612C297.85 66.3675 297.264 65.2094 297.198 63.7122C297.193 63.6351 297.327 63.3648 297.024 63.4741C296.995 63.5762 296.967 63.6754 296.939 63.7774C296.609 65.2479 295.697 66.1048 294.013 66.3082Z" fill="white"/>
<path d="M327.149 83.891C327.139 83.7897 327.132 83.6888 327.122 83.5874C327.094 83.4277 327.068 83.2684 327.039 83.1087C326.985 82.7867 326.929 82.4644 326.875 82.1396C326.847 82.024 326.818 81.9112 326.792 81.796C326.756 81.6883 326.718 81.5773 326.683 81.4696C326.437 80.9308 326.192 80.392 325.946 79.8531C325.395 79.1615 324.858 78.4659 324.112 77.9569C321.378 76.0958 316.88 76.5303 314.307 78.8586C312.649 80.3625 312.053 82.2177 312.182 84.388C312.267 85.7936 312.314 87.2233 311.788 88.5499C310.913 90.7558 309.162 92.162 307.172 93.3508C310.02 93.0036 312.843 92.5738 315.324 90.9479L315.323 90.9537C315.427 90.8589 315.528 90.7636 315.632 90.6716C315.77 90.5373 315.909 90.4058 316.045 90.2711C316.578 89.5604 316.946 88.7687 317.159 87.9061C317.173 87.802 317.187 87.698 317.201 87.594C317.226 87.3885 317.248 87.1826 317.272 86.9771C317.229 86.1154 317.383 85.2949 317.767 84.5171C317.882 84.3207 317.996 84.1272 318.111 83.9308C318.442 83.3694 318.871 82.9329 319.558 82.8397L319.559 82.8517C319.697 82.6996 319.867 82.6842 320.054 82.7358L320.04 82.7574C320.102 82.7276 320.165 82.6978 320.228 82.668C320.495 82.6332 320.756 82.6565 321.011 82.7525C321.183 82.7667 321.357 82.7813 321.472 82.9378C321.574 83.0075 321.673 83.0796 321.776 83.1492C322.512 83.8245 322.563 84.5196 321.939 85.3976C321.885 85.6021 321.763 85.7446 321.567 85.8212C320.9 86.6258 320.214 86.4308 319.516 85.8665C319.506 85.9652 319.493 86.0605 319.483 86.1591C319.561 86.3196 319.537 86.4782 319.489 86.6393C319.521 86.9524 319.552 87.2655 319.584 87.5785C319.736 87.8666 319.889 88.1548 320.044 88.4433C320.08 88.4628 320.1 88.4919 320.106 88.531C320.344 88.7277 320.58 88.9211 320.819 89.1178C321.428 89.4025 322.062 89.6112 322.735 89.6838C322.85 89.6816 322.965 89.6765 323.08 89.6743L324.356 89.4455C324.418 89.4186 324.478 89.3913 324.54 89.3644C325.052 89.0566 325.559 88.7424 325.972 88.3006C326.057 88.1915 326.139 88.0849 326.221 87.9753C326.828 86.9598 327.09 85.842 327.176 84.677C327.093 84.4217 327.099 84.1578 327.149 83.891Z" fill="#FFB401"/>
<path d="M320.838 73.4115C321.546 72.2095 321.707 72.0663 322.821 71.6542C321.873 71.2652 321.513 70.5051 321.358 69.5755C321.085 70.5594 320.498 71.1423 319.311 71.236C320.449 71.6181 320.765 72.3987 320.838 73.4115Z" fill="white"/>
<path d="M308.458 83.5793L308.448 83.5868L308.512 83.704C308.494 83.6605 308.476 83.6199 308.458 83.5793Z" fill="white"/>
<path d="M292.267 128.412C292.149 128.046 292.031 127.678 291.912 127.312C291.67 128.197 291.148 128.841 289.994 129.042C291.106 129.48 291.36 130.261 291.405 131.394C291.734 130.373 292.247 129.792 293.067 129.517C292.996 129.01 292.392 128.885 292.267 128.412Z" fill="white"/>
<path d="M299.957 107.994C299.367 107.654 298.972 107.289 298.782 106.751C298.046 106.87 297.588 107.318 297.313 107.987C297.908 108.358 297.887 109.037 298.109 109.705C298.451 108.804 299.027 108.264 299.957 107.994Z" fill="white"/>
<path d="M323.386 94.9096C322.944 94.1708 322.733 93.3778 322.804 92.5139L322.822 92.4956C322.738 92.505 322.657 92.5176 322.576 92.5302C322.436 93.6998 321.963 94.6363 320.805 95.1103C320.581 95.1802 320.359 95.2534 320.135 95.3233C319.962 95.3647 319.789 95.4062 319.53 95.4714C319.96 95.6879 320.338 95.7445 320.567 96.0547C321.668 96.7525 321.692 97.9293 321.856 99.1659C322.318 97.8457 322.91 96.8133 324.205 96.396C324.308 95.6893 323.677 95.3928 323.386 94.9096Z" fill="white"/>
<path d="M329.824 101.344C329.628 102.124 329.181 102.408 328.539 102.657C329.214 102.974 329.361 103.541 329.547 104.172C329.878 103.575 330.175 103.091 330.966 102.986C330.308 102.58 330.071 102.068 329.824 101.344Z" fill="white"/>
<path d="M329.58 82.6614C329.613 83.6217 329.896 84.4479 330.827 84.9258C330.757 85.2046 330.435 85.1026 330.284 85.2647C329.944 85.3867 329.668 85.5819 329.511 85.9197C329.264 86.1337 329.221 86.4572 329.031 86.7936C328.885 85.8445 328.751 84.9354 327.657 84.6944C327.659 84.6329 327.661 84.5715 327.664 84.5071C327.857 84.4977 328.065 84.5491 328.207 84.3624C328.266 84.3203 328.324 84.281 328.383 84.2389C328.701 84.2787 328.866 84.1214 328.932 83.8274C329.254 83.6235 329.358 83.3109 329.382 82.9553C329.537 82.9173 329.544 82.78 329.58 82.6614Z" fill="white"/>
<path d="M235.369 89.6693C236.544 88.327 237.985 87.2764 239.304 86.0887C241.004 84.558 242.738 83.0642 244.43 81.5238C244.923 81.0752 245.278 80.9729 245.775 81.522C250.652 86.9265 255.539 92.3178 260.436 97.7045C260.726 98.0257 260.859 98.3259 260.638 98.7227C260.093 99.7819 259.07 100.383 258.225 101.134C256.131 102.994 254.054 104.871 251.924 106.691C251.661 106.918 251.429 107.199 251.034 107.187C250.665 107.04 250.526 106.651 250.236 106.424C245.672 101.452 241.188 96.4091 236.623 91.4377C236.136 90.9075 235.556 90.421 235.369 89.6693Z" fill="#FF7707"/>
<path d="M235.37 89.669C237.423 91.9122 239.483 94.1475 241.523 96.4007C244.5 99.6915 247.467 102.993 250.437 106.291C250.608 106.667 250.355 106.904 250.127 107.111C249.493 107.691 248.931 108.354 248.241 108.867C247.179 109.657 246.248 110.538 245.804 111.828C244.189 110.317 242.784 108.614 241.317 106.964C240.182 105.688 238.974 104.473 237.849 103.184C236.353 101.466 234.794 99.7975 233.261 98.1094C232.602 97.3827 231.914 96.6815 231.272 95.9394C230.217 94.7185 230.245 93.9634 231.497 92.9668C232.66 92.0434 233.688 90.9785 234.812 90.0176C234.974 89.8806 235.184 89.7852 235.37 89.669Z" fill="#304858"/>
<path d="M251.044 107.085C254.012 104.463 256.98 101.841 259.953 99.2249C260.163 99.0384 260.407 98.8888 260.635 98.7253C261.2 99.3599 261.762 99.9913 262.327 100.626C262.475 101.152 262.035 101.357 261.751 101.607C258.888 104.132 256.022 106.653 253.161 109.181C252.662 109.502 252.31 110.02 251.736 110.24C251.574 110.262 251.405 110.248 251.281 110.146C250.836 109.775 250.469 109.814 250.038 110.221C249.62 110.617 249.356 110.961 249.774 111.506C249.889 111.657 249.876 111.869 249.78 112.054C249.611 112.331 249.36 112.53 249.103 112.713C248.265 113.303 247.585 113.221 246.938 112.451C246.283 111.675 246.282 110.958 247.001 110.272C248.077 109.243 249.231 108.3 250.356 107.328C250.549 107.157 250.766 107.03 251.044 107.085Z" fill="#F7F7E0"/>
<path d="M252.981 109.012C255.567 106.715 258.155 104.421 260.739 102.118C261.28 101.635 261.799 101.122 262.328 100.626C262.596 100.559 262.919 100.39 263.07 100.755C263.203 101.078 262.916 101.266 262.702 101.452C259.634 104.144 256.566 106.835 253.501 109.526C253.099 109.584 252.972 109.367 252.981 109.012Z" fill="#FF7707"/>
<path d="M251.046 107.085C249.764 108.219 248.479 109.352 247.205 110.493C246.469 111.15 246.487 111.5 247.185 112.326C247.739 112.982 248.29 113.127 248.952 112.492C249.202 112.252 249.485 112.046 249.754 111.823C250.13 111.824 250.366 111.956 250.269 112.387C249.965 112.664 249.68 112.966 249.355 113.217C248.344 113.999 247.546 113.912 246.705 112.944C246.394 112.584 246.104 112.204 245.807 111.832C245.591 110.612 246.462 109.976 247.227 109.343C248.369 108.396 249.484 107.431 250.44 106.295C250.745 106.477 250.934 106.753 251.046 107.085Z" fill="#253946"/>
<path d="M250.27 112.387C250.175 112.127 249.976 111.968 249.754 111.823C249.639 111.673 249.551 111.49 249.404 111.379C248.911 111.001 248.966 110.679 249.458 110.366C249.538 110.315 249.618 110.252 249.672 110.177C250.314 109.293 250.971 109.246 251.649 110.134C251.967 110.22 252.251 110.338 252.229 110.747C253.022 111.368 252.714 112.13 252.496 112.88C252.381 113.27 252.273 113.662 252.128 114.174C251.466 113.533 250.866 112.961 250.27 112.387Z" fill="#FF7707"/>
<path d="M252.231 110.747C252.037 110.542 251.844 110.336 251.651 110.134C252.095 109.761 252.54 109.386 252.984 109.013C253.158 109.186 253.329 109.356 253.503 109.53C253.078 109.934 252.653 110.342 252.231 110.747Z" fill="#253946"/>
<path d="M262.375 62.7763C261.727 62.8012 261.289 63.2394 261.087 63.7358C260.64 64.8259 260.257 65.9509 260.098 67.1325C260.573 66.8874 261.049 66.6455 261.367 66.1881C261.947 66.5983 262.582 66.7542 263.29 66.5875C263.658 65.4308 264.025 64.2742 264.392 63.1176C263.733 62.9409 263.113 62.5137 262.375 62.7763Z" fill="#304858"/>
<path d="M257.139 80.2502C256.601 80.2927 256.278 80.6611 255.955 81.0295C255.469 82.1054 255.116 83.2199 254.939 84.3901C255.262 83.8659 255.783 83.6447 256.341 83.4784C256.976 83.4194 257.539 83.7185 258.136 83.8487C258.463 82.7485 258.788 81.645 259.115 80.5448C258.474 80.3235 257.845 80.0361 257.139 80.2502Z" fill="#304858"/>
<path d="M261.036 67.3322C260.516 67.4388 260.108 67.7135 259.805 68.1493C259.364 69.093 259.058 70.0755 258.899 71.1071C259.272 70.5454 259.802 70.2371 260.464 70.1437C261.032 70.1876 261.579 70.3227 262.103 70.5372C262.392 69.5701 262.681 68.6029 262.969 67.6387C262.341 67.4486 261.725 67.1718 261.036 67.3322Z" fill="#304858"/>
<path d="M264.394 63.1151C269.206 64.5492 274.018 65.9863 278.832 67.4118C279.318 67.5565 279.424 67.8207 279.285 68.2902C277.253 75.0322 275.233 81.7757 273.207 88.5185C272.94 88.5768 272.694 88.482 272.445 88.4074C267.978 87.0697 263.511 85.7377 259.045 84.3971C258.694 84.2912 258.322 84.2177 258.082 83.9002C257.965 83.6728 257.992 83.4322 258.058 83.2028C258.33 82.2688 258.561 81.3203 258.924 80.4132C259.398 78.4975 260.021 76.6251 260.583 74.7359C261.011 73.3022 261.382 71.8549 261.905 70.4517C262.139 69.48 262.407 68.516 262.767 67.582C262.834 67.2175 262.929 66.8596 263.086 66.5219C263.278 65.5741 263.603 64.6648 263.886 63.7439C263.969 63.4728 264.116 63.2366 264.394 63.1151Z" fill="#FF7707"/>
<path d="M262.106 70.5374C257.772 84.391 260.595 79.2551 255.922 80.8338C257.013 77.3744 257.725 74.0023 259.157 70.568C259.809 69.7879 261.557 69.6783 262.106 70.5374Z" fill="#FFFAEC"/>
<path d="M258.137 83.8486C262.891 85.275 267.649 86.6989 272.404 88.1253C272.693 88.2111 273.001 88.2584 273.205 88.5181C273.16 88.6739 273.118 88.8329 273.074 88.9887C272.839 89.2455 272.561 89.214 272.273 89.1047C267.265 87.612 262.259 86.1106 257.255 84.6125C256.853 84.491 256.462 84.3561 256.088 84.6677C255.951 84.8317 255.785 84.9741 255.679 85.1687C255.321 85.8412 255.618 86.5693 256.338 86.7953C256.583 86.8724 256.846 86.9106 257.059 87.0745C257.278 87.4009 257.608 87.26 257.903 87.2818C258.229 87.3463 258.543 87.4442 258.847 87.5703C259.111 87.6617 259.18 88.1562 259.598 87.933C263.063 88.9097 266.495 89.9911 269.949 91.0017C270.285 91.0439 270.592 91.1909 270.921 91.2586C271.139 91.3055 271.37 91.4247 271.576 91.223C271.631 91.1892 271.692 91.1709 271.755 91.1646C272.043 91.3416 272.063 91.6708 272.189 91.9377C272.119 92.3724 271.915 92.492 271.468 92.3585C266.268 90.7899 261.06 89.2498 255.861 87.6754C254.526 87.2727 254.133 85.7906 254.942 84.3933C255.116 83.5755 255.809 83.4596 256.456 83.2818C257.081 83.2774 257.693 83.3213 258.137 83.8486Z" fill="#253946"/>
<path d="M260.1 67.1329C260.719 66.0748 261.979 66.044 263.293 66.5849C263.178 67.2872 262.961 67.517 262.767 67.5821C262.422 67.6975 262.146 67.3045 261.616 67.2628C261.109 67.2242 260.662 67.526 260.333 67.8318C260.145 67.9595 259.923 68.0826 259.835 68.012C259.707 67.9096 259.909 67.4602 260.1 67.1329Z" fill="#FFFAEC"/>
<path d="M272.435 88.9678C272.648 88.9759 272.862 88.984 273.076 88.9892C272.783 89.9703 272.486 90.9511 272.192 91.9352C271.887 91.7943 271.628 91.6242 271.773 91.2202C271.631 91.1216 271.635 90.9781 271.652 90.8275C271.677 90.6896 271.702 90.5488 271.757 90.418C271.793 90.2846 271.823 90.1503 271.875 90.025C271.907 89.894 271.946 89.761 271.992 89.6319C272.02 89.5328 272.04 89.4295 272.085 89.3356C272.15 89.1619 272.234 89.0115 272.435 88.9678Z" fill="#304858"/>
<path d="M263.863 76.52C264.268 75.1685 264.665 73.8129 265.079 72.4626C265.309 71.714 265.598 71.5529 266.337 71.7726C268.544 72.4247 270.751 73.0827 272.956 73.7522C273.869 74.0306 274.016 74.318 273.74 75.2545C272.999 77.7521 272.249 80.2485 271.499 82.7449C271.424 82.9937 271.31 83.2313 271.216 83.4716C271.061 83.8625 270.77 83.9853 270.377 83.8678C267.941 83.1409 265.506 82.4139 263.071 81.6812C262.517 81.5127 262.491 81.1093 262.631 80.6398C263.042 79.2656 263.452 77.8942 263.863 76.52Z" fill="#FFFAEC"/>
<path d="M270.606 69.9075C269.355 69.5338 268.108 69.1547 266.857 68.7896C266.489 68.6814 266.165 68.5056 266.291 68.0754C266.411 67.665 266.754 67.6259 267.141 67.7455C269.638 68.4983 272.139 69.2457 274.638 69.9869C275.017 70.0996 275.286 70.268 275.142 70.7223C274.991 71.1931 274.645 71.1173 274.291 71.011C273.064 70.6404 271.833 70.2752 270.606 69.9075Z" fill="#FFFAEC"/>
<path d="M257.654 85.4897C258.393 85.4183 259.028 85.7976 259.706 85.9828C259.976 86.0572 259.858 86.3002 259.81 86.4791C259.675 87.0022 259.526 87.5204 259.386 88.0398C258.942 88.4566 259.08 87.7575 258.853 87.7594C258.539 87.4232 258.186 87.2229 257.713 87.4153C257.526 87.299 257.114 88.0408 257.099 87.2564C257.052 87.1236 256.993 86.9922 257.031 86.8443C257.055 86.7064 257.085 86.5721 257.138 86.441C257.173 86.3104 257.206 86.1766 257.258 86.0483C257.291 85.9145 257.335 85.7822 257.407 85.6624C257.466 85.5762 257.543 85.5071 257.654 85.4897Z" fill="#FD4D0A"/>
<path d="M257.716 87.4157C258.439 87.004 258.439 87.004 258.856 87.7598C258.474 87.6468 258.095 87.5313 257.716 87.4157Z" fill="#E4EAE6"/>
<path d="M272.434 88.9678C267.278 87.4198 262.122 85.8719 256.962 84.3264C256.515 84.1929 256.101 84.2285 255.806 84.6536C254.907 85.6094 255.179 86.6724 256.42 87.0478C256.646 87.1164 256.873 87.185 257.098 87.2565C257.137 87.1205 257.176 86.9874 257.215 86.8515C257.252 86.7271 257.292 86.6031 257.329 86.4787L257.436 86.1018C257.473 85.9774 257.514 85.8505 257.551 85.7261C257.568 85.6843 257.585 85.6454 257.6 85.6032C257.98 85.7336 258.376 85.8044 258.76 85.9265C259.584 86.1872 259.578 86.1893 259.376 87.0122C259.296 87.3456 259.048 87.7006 259.38 88.0391C259.632 88.1112 259.882 88.1771 260.131 88.2517C263.441 89.2343 266.752 90.2198 270.062 91.2024C270.435 91.3201 270.812 91.4266 271.177 91.5579C271.514 91.6796 271.669 91.5562 271.704 91.2257L271.764 91.2161C271.791 91.0844 271.817 90.9556 271.843 90.8238C271.878 90.6961 271.916 90.566 271.951 90.4383C271.991 90.3171 272.028 90.1956 272.068 90.0745C272.105 89.9472 272.14 89.8166 272.178 89.6893C272.201 89.6071 272.221 89.5216 272.244 89.4394C272.312 89.2838 272.372 89.1241 272.434 88.9678Z" fill="white"/>
<path d="M341.596 150.086C341.554 149.81 341.515 149.531 341.473 149.255C341.096 149.366 340.747 149.225 340.394 149.139C340.517 149.162 340.638 149.181 340.762 149.203C341.006 149.245 341.228 149.301 341.449 149.149C341.267 148.548 341.02 147.962 340.919 147.348C340.751 146.325 339.909 145.648 339.661 144.667C339.512 144.068 339.339 143.448 338.869 142.985C338.668 142.772 338.418 142.662 338.136 142.592C334.961 141.807 331.861 140.765 328.746 139.773C327.025 139.239 325.336 138.606 323.63 138.033C320.19 136.877 316.708 135.898 313.102 135.406C312.253 135.306 311.407 135.184 310.56 135.073C309.632 134.928 308.699 134.976 307.768 134.981C303.593 135.003 299.615 135.795 296.047 138.084C295.146 138.663 294.182 139.201 293.599 140.17C293.573 140.405 293.73 140.532 293.892 140.639C295.223 141.532 296.046 142.805 296.605 144.274C296.705 144.537 296.792 144.813 297.098 144.919C297.533 145.057 297.974 145.037 298.417 144.984C301.907 144.562 305.395 144.73 308.87 145.12C311.325 145.397 313.744 145.948 316.151 146.515C319.23 147.246 322.314 147.948 325.401 148.647C325.941 148.72 326.453 148.921 326.993 148.994C331.582 149.613 336.172 150.229 340.763 150.839C341.061 150.879 341.368 150.952 341.644 150.742C341.625 150.528 341.611 150.306 341.596 150.086Z" fill="#CDB299"/>
<path d="M286.273 132.428C283.759 130.791 280.902 130.095 278.016 129.538C275.344 129.02 272.63 128.897 269.905 128.899C265.07 128.9 260.271 129.432 255.458 129.771C252.357 129.991 249.252 130.127 246.143 130.206C245.727 130.218 245.318 130.193 244.934 130.38C244.547 130.616 244.382 131.035 244.118 131.373C243.703 131.9 243.401 132.621 242.864 132.916C242.26 133.247 242.019 133.706 241.746 134.231C241.366 134.959 240.969 135.677 240.581 136.401C240.737 136.596 240.969 136.574 241.177 136.607C241.263 136.622 241.35 136.634 241.436 136.648C241.283 136.628 241.13 136.607 240.976 136.586C240.783 136.558 240.587 136.525 240.409 136.646L240.211 137.137C240.473 137.466 240.867 137.442 241.223 137.487C244.792 137.931 248.336 138.557 251.929 138.792C253.919 138.897 255.906 139.064 257.89 139.207C259.989 139.359 262.09 139.465 264.191 139.596C267.092 139.774 269.99 139.993 272.881 140.289C274.675 140.471 276.431 140.892 278.195 141.253C280.117 141.643 281.991 142.171 283.77 143.013C283.981 143.082 284.185 143.18 284.418 143.156C284.716 143.063 284.845 142.801 285.008 142.573C286.375 140.636 288.23 139.658 290.617 139.723C290.948 139.732 291.318 139.805 291.575 139.487C291.617 139.172 291.512 138.884 291.403 138.602C290.376 135.967 288.613 133.954 286.273 132.428Z" fill="#CDB299"/>
<path d="M317.29 120.23C319.347 119.153 321.508 118.31 323.692 117.539C325.567 116.876 327.471 116.284 329.361 115.664C330.05 115.504 330.739 115.346 331.535 115.162C330.927 116.58 330.355 117.904 329.792 119.228C329.599 119.679 329.18 119.511 328.875 119.523C326.775 119.606 324.681 119.754 322.59 119.962C320.801 120.139 319.02 120.388 317.258 120.758C317.07 120.797 316.884 120.887 316.683 120.807C316.68 120.392 317.158 120.494 317.29 120.23Z" fill="#BEA38D"/>
<path d="M317.29 120.229C317.274 120.615 316.765 120.482 316.683 120.804C316.377 120.939 316.066 121.065 315.725 121.081C316.161 120.64 316.753 120.484 317.29 120.229Z" fill="#92806D"/>
<path d="M296.993 144.793C297.435 144.826 297.878 144.903 298.327 144.828C305.927 145.613 313.472 146.817 321.049 147.778C322.189 147.922 323.321 148.124 324.441 148.372C324.732 148.437 325.035 148.504 325.342 148.457C330.378 149.383 335.478 149.88 340.543 150.618C340.907 150.67 341.276 150.708 341.64 150.751C342.333 150.944 342.637 151.308 342.531 151.811C342.425 152.318 342.01 152.533 341.291 152.436C327.201 150.545 313.108 148.653 299.017 146.768C298.748 146.732 298.466 146.597 298.194 146.781C297.691 146.799 297.195 146.726 296.722 146.569C296.339 146.441 295.992 146.241 296.104 145.733C296.163 145.605 296.246 145.511 296.394 145.613C296.881 145.952 296.936 145.677 296.894 145.265C296.879 145.093 296.831 144.922 296.993 144.793Z" fill="#FF7707"/>
<path d="M240.209 137.13C243.775 137.591 247.321 138.226 250.913 138.47C251.28 138.496 251.642 138.562 252.007 138.608C252.997 138.876 254.027 138.859 255.035 138.973C255.962 139.08 256.892 139.17 257.817 139.294C265.981 140.378 274.142 141.482 282.305 142.566C282.863 142.641 283.384 142.878 283.951 142.89C284.106 142.958 284.265 143.026 284.423 143.097C284.515 143.248 284.429 143.38 284.387 143.519C284.334 143.697 284.193 143.911 284.406 144.033C284.638 144.167 284.72 143.911 284.833 143.773C284.973 143.603 285.048 143.328 285.367 143.453C285.664 143.72 285.72 144.045 285.55 144.39C285.349 144.792 284.999 144.986 284.548 144.97C283.904 144.945 283.27 144.763 282.618 144.843C282.52 144.433 282.165 144.509 281.885 144.471C271.234 143.039 260.587 141.61 249.936 140.18C246.682 139.743 243.424 139.306 240.17 138.869C239.823 138.823 239.47 138.799 239.256 138.461C239.076 138.181 239.056 137.893 239.211 137.596C239.426 137.178 239.795 137.104 240.209 137.13Z" fill="#FF7707"/>
<path d="M293.405 140.177C293.489 140.206 293.574 140.235 293.661 140.264C295.387 141.322 296.346 142.945 296.992 144.796C297.011 144.943 297.011 145.093 297.048 145.233C297.125 145.52 297.151 145.809 296.843 145.956C296.465 146.134 296.386 145.783 296.245 145.561C295.837 143.45 294.877 141.66 292.822 140.813C289.961 139.635 286.81 140.559 285.217 143.439C285.098 143.641 284.983 143.846 284.859 144.044C284.728 144.253 284.563 144.452 284.293 144.295C284.055 144.157 284.038 143.916 284.144 143.672C284.229 143.477 284.328 143.288 284.421 143.094C285.362 141.609 286.549 140.421 288.269 139.858C289.322 139.511 290.396 139.49 291.481 139.577C291.618 139.763 291.823 139.708 292.008 139.73C292.271 139.786 292.534 139.845 292.797 139.901C293.003 139.99 293.203 140.082 293.405 140.177Z" fill="#FF7707"/>
<path d="M310.402 135.229C311.333 135.151 312.241 135.272 313.122 135.594C312.214 135.472 311.309 135.35 310.402 135.229Z" fill="#CAC8B4"/>
<path d="M276.322 138.831C276.4 138.185 276.478 137.54 276.555 136.897C276.52 136.237 276.793 135.609 276.758 134.951C276.762 134.855 276.769 134.756 276.774 134.656C276.675 134.514 276.684 134.382 276.809 134.258C276.92 133.455 277.031 132.652 277.144 131.85C277.204 131.802 277.271 131.785 277.348 131.798C279.357 132.047 281.297 132.566 283.168 133.338C283.407 133.438 283.659 133.513 283.848 133.709C283.898 133.771 283.904 133.84 283.868 133.911C283.48 136.427 283.092 138.945 282.682 141.602C282.26 141.195 281.942 140.888 281.622 140.58C281.356 140.456 281.126 140.282 280.925 140.072C280.859 140.016 280.803 139.953 280.743 139.892C279.447 138.571 279.985 138.702 278.31 139.409C278.151 139.5 277.968 139.502 277.796 139.537C277.254 139.585 276.82 139.942 276.261 140.096C276.137 139.797 276.305 139.508 276.266 139.229C276.194 139.084 276.204 138.947 276.322 138.831Z" fill="#FD4D0A"/>
<path d="M297.032 146.475C296.568 146.342 296.049 146.258 296.249 145.558C296.413 145.392 296.366 145.189 296.314 145.008C295.986 143.902 295.554 142.844 294.752 141.978C293.733 140.873 292.469 140.333 290.97 140.211C288.671 140.026 286.878 140.889 285.488 142.676C285.324 142.889 285.128 143.121 285.22 143.44C285.472 143.709 285.625 144.02 285.4 144.361C285.174 144.704 284.851 144.875 284.409 144.79C283.991 144.707 283.56 144.673 283.135 144.613C282.913 144.58 282.702 144.558 282.619 144.841C282.676 145.495 283.099 145.781 283.689 145.861C288.078 146.456 292.469 147.045 296.86 147.628C297.516 147.714 298.003 147.464 298.195 146.781C297.868 146.449 297.418 146.586 297.032 146.475Z" fill="#253946"/>
<path d="M319.061 146.999C314.684 145.956 310.311 144.91 305.798 144.646C303.305 144.499 300.808 144.464 298.327 144.825C298.481 145.031 298.72 144.987 298.925 145.014C307.477 146.165 316.029 147.316 324.582 148.458C324.83 148.491 325.091 148.612 325.342 148.454C323.25 147.97 321.151 147.498 319.061 146.999Z" fill="#304858"/>
<path d="M283.953 142.884C283.517 142.687 283.091 142.465 282.646 142.297C279.346 141.057 275.902 140.433 272.423 140.048C265.638 139.299 258.808 139.132 252.008 138.602C252.182 138.822 252.444 138.775 252.673 138.806C262.892 140.181 273.112 141.552 283.33 142.918C283.535 142.948 283.756 143.057 283.953 142.884Z" fill="#304858"/>
<path d="M277.27 131.843C277.606 131.285 278.138 131.424 278.641 131.465C280.515 131.823 282.345 132.33 284.069 133.161C284.2 133.435 284.188 133.66 283.857 133.774C282.378 133.196 280.874 132.7 279.332 132.308C278.783 132.167 278.229 132.104 277.675 132.047C277.495 132.029 277.331 132.066 277.27 131.843Z" fill="#CC3B30"/>
<path d="M327.912 141.423C325.651 140.619 323.371 139.872 321.092 139.116C318.481 138.251 315.819 137.567 313.114 137.066C309.316 136.362 305.522 136.523 301.76 137.374C300.604 137.634 299.456 137.939 298.379 138.444C299.487 138.24 300.572 137.956 301.675 137.739C304.6 137.167 307.546 136.924 310.525 137.221C313.646 137.531 316.661 138.31 319.653 139.211C323.691 140.427 327.681 141.783 331.695 143.077C332.462 143.325 333.202 143.683 334.037 143.712C331.994 142.947 329.965 142.151 327.912 141.423Z" fill="#95806D"/>
<path d="M298.048 140.814C305.673 138.741 313.154 139.715 320.577 141.938C313.171 139.347 305.702 138.109 298.048 140.814Z" fill="#95806D"/>
<path d="M300.357 142.569C306.387 141.528 312.236 142.542 318.035 144.103C312.263 142.234 306.432 141.019 300.357 142.569Z" fill="#95806D"/>
<path d="M278.029 131.292C275.879 130.998 273.734 130.719 271.556 130.653C269.458 130.592 267.363 130.613 265.267 130.706C262.737 130.816 260.226 131.153 257.703 131.358C256.498 131.455 255.303 131.636 254.101 131.78C254.236 131.893 254.364 131.922 254.493 131.909C258.71 131.482 262.93 131.154 267.176 131.109C270.526 131.073 273.845 131.313 277.145 131.85C277.187 131.847 277.231 131.847 277.272 131.846C277.703 131.619 278.211 131.687 278.644 131.469C278.469 131.301 278.24 131.32 278.029 131.292Z" fill="#95806D"/>
<path d="M276.076 136.351C273.63 135.837 271.136 135.626 268.651 135.469C266.562 135.335 264.462 135.306 262.365 135.363C260.98 135.401 259.595 135.374 258.214 135.559C264.357 135.604 270.506 135.568 276.554 136.894C276.658 136.249 276.434 136.425 276.076 136.351Z" fill="#95806D"/>
<path d="M260.454 137.71C265.758 137.848 271.033 138.292 276.26 139.228L276.322 138.828C271.065 138.013 265.789 137.423 260.454 137.71Z" fill="#95806D"/>
<path d="M276.774 134.656C276.785 134.525 276.798 134.392 276.81 134.258C276.582 134.115 276.32 134.092 276.063 134.058C273.483 133.703 270.887 133.595 268.292 133.553C266.777 133.529 265.258 133.581 263.743 133.601C268.101 133.751 272.473 133.752 276.774 134.656Z" fill="#95806D"/>
<path d="M284.071 133.162C284.067 133.388 284.006 133.598 283.859 133.775C283.862 133.819 283.865 133.864 283.867 133.911C286.116 134.778 287.869 136.301 289.419 138.101C288.235 135.803 286.336 134.284 284.071 133.162Z" fill="#95806D"/>
<path d="M280.716 139.873C279.912 139.574 279.119 139.215 278.226 139.333C278.04 139.317 277.904 139.405 277.792 139.54C279.07 139.888 280.344 140.235 281.621 140.583C281.436 140.388 281.253 140.192 281.067 139.997C280.921 140.036 280.834 139.916 280.716 139.873Z" fill="#95806D"/>
<path d="M327.715 115.802C326.336 116.014 324.232 116.367 321.688 116.908C313.132 118.727 306.993 120.097 301.421 124.47C300.063 125.535 298.122 127.262 296.16 129.885C296.683 124.634 296.58 120.291 296.364 117.188C296.176 114.51 296.028 112.502 295.408 109.757C294.539 105.926 293.077 102.306 291.215 98.8413C290.224 96.9965 289.187 95.1839 288.132 93.3775C287.885 92.9562 287.625 92.7477 287.091 92.9967C284.778 94.0745 282.452 95.1181 280.128 96.1679C278.339 96.9749 276.546 97.7754 274.758 98.5766C275.744 99.7618 276.726 100.952 277.678 102.163C279.048 103.905 280.398 105.663 281.666 107.486C282.632 108.878 283.631 110.25 284.562 111.663C286.575 114.713 288.478 117.83 290.151 121.081C291.365 123.438 292.55 125.812 293.328 128.363C293.931 130.338 294.221 132.345 294.168 134.405C294.164 134.567 294.053 134.819 294.28 134.885C294.277 134.888 294.276 134.89 294.273 134.896C294.092 136.245 293.91 137.594 293.716 139.045C295.144 137.548 296.486 136.143 297.828 134.738C298.105 134.798 298.251 134.521 298.414 134.36C300.799 131.981 303.292 129.718 305.881 127.572C308.923 125.048 312.177 122.817 315.741 121.075L315.732 121.079C316.266 120.783 316.852 120.603 317.393 120.323C321.069 118.581 324.882 117.204 328.777 116.048C328.844 116.027 329.028 115.955 329.284 115.866C330.195 115.547 330.97 115.316 331.544 115.16C330.699 115.297 329.36 115.517 327.715 115.802Z" fill="#F7F1E0"/>
<path d="M291.297 132.791C291.176 132.395 291.015 132.015 290.795 131.662C290.711 131.565 290.627 131.465 290.546 131.366C290.527 131.29 290.508 131.217 290.478 131.148C289.142 128.125 287.475 125.292 285.56 122.612C284.267 120.803 282.915 119.036 281.408 117.396C279.278 115.075 277.024 112.881 274.695 110.765C274.068 110.199 273.444 109.63 272.82 109.064C272.812 109.119 272.795 109.163 272.772 109.198C272.358 108.602 271.857 108.102 271.139 107.862C271.059 107.936 270.993 108.033 270.901 108.08C269.821 108.608 268.776 109.2 267.724 109.783C265.366 111.084 263.173 112.63 260.979 114.174C258.776 115.726 256.7 117.447 254.602 119.136C254.467 119.247 254.324 119.349 254.301 119.54C254.416 119.755 254.619 119.844 254.837 119.865C255.471 119.923 256.06 120.161 256.675 120.288C259.137 120.798 261.586 121.365 264.037 121.929C266.783 122.559 269.519 123.221 272.243 123.948C275.896 124.924 279.499 126.031 282.977 127.521C285.386 128.553 287.696 129.737 289.555 131.648C289.997 132.102 290.355 132.62 290.744 133.116C290.874 133.284 291.04 133.541 291.254 133.438C291.516 133.302 291.362 133.008 291.297 132.791Z" fill="#F7F1E0"/>
<path d="M292.319 139.228C292.314 138.742 292.338 138.251 292.166 137.781C292.091 137.638 292.047 137.482 291.997 137.329C291.814 135.101 290.771 133.244 289.276 131.622C287.969 130.203 286.3 129.267 284.586 128.399C281.074 126.621 277.35 125.425 273.575 124.377C271.598 123.826 269.608 123.309 267.599 122.88C265.529 122.438 263.474 121.921 261.411 121.438C260.596 121.305 259.813 121.003 258.977 120.961C258.973 120.967 258.967 120.969 258.964 120.974C258.955 120.947 258.948 120.916 258.934 120.885C258.418 120.607 257.836 120.543 257.283 120.387C257.002 120.308 256.711 120.172 256.42 120.368C256.399 120.504 256.324 120.605 256.216 120.688C254.169 122.275 252.235 123.992 250.273 125.675C248.474 127.222 246.657 128.746 244.937 130.383C247.425 130.437 249.91 130.312 252.387 130.159C256.704 129.892 261.015 129.52 265.332 129.226C268.293 129.024 271.259 129.001 274.219 129.225C276.75 129.417 279.251 129.874 281.69 130.601C284.128 131.328 286.381 132.393 288.227 134.205C289.771 135.721 290.967 137.44 291.484 139.575C291.56 139.882 291.788 139.854 292.02 139.814C292.266 139.691 292.321 139.472 292.319 139.228Z" fill="#F7F1E0"/>
<path d="M293.762 136.689C293.741 136.495 293.711 136.303 293.692 136.109C294.052 133.651 293.857 131.219 293.199 128.822C292.219 125.253 290.415 122.055 288.641 118.849C287.195 116.234 285.66 113.663 284.005 111.174C282.553 108.99 281.095 106.807 279.465 104.749C278.901 103.971 278.351 103.185 277.702 102.472C277.713 102.456 277.727 102.443 277.735 102.423C277.365 101.562 276.695 100.942 276.028 100.323C276.02 100.317 275.988 100.333 275.967 100.339C275.865 100.484 275.728 100.583 275.561 100.646C272.808 101.688 270.222 103.071 267.644 104.472C267.791 104.78 268.064 104.963 268.312 105.173C272.384 108.599 276.407 112.077 280.174 115.845C282.641 118.311 284.817 121.012 286.728 123.921C288.638 126.831 290.313 129.876 291.536 133.146C292.283 135.143 292.91 137.178 292.706 139.362C292.685 139.583 292.62 139.865 292.981 139.917C293.242 139.816 293.264 139.563 293.338 139.344C293.618 138.481 293.708 137.591 293.762 136.689Z" fill="#F7F1E0"/>
<path d="M338.642 142.316C337.054 139.129 335.429 135.961 333.91 132.743C333.445 131.757 332.779 131.217 331.812 130.835C329.342 129.859 326.842 128.997 324.295 128.24C322.827 127.805 321.362 127.32 319.867 127.061C317.739 126.69 315.597 126.34 313.41 126.412C311.081 126.49 308.806 126.82 306.615 127.626C306.438 127.691 305.409 128.235 305.37 128.241C305.197 128.368 305.008 128.481 304.848 128.624C303.482 129.858 302.094 131.075 300.762 132.346C299.118 133.917 297.497 135.514 296.009 137.238C295.048 138.132 294.186 139.117 293.406 140.174C293.469 140.27 293.554 140.296 293.662 140.261C293.881 140.026 294.078 139.764 294.324 139.559C296.16 138.043 298.2 136.92 300.487 136.215C303.731 135.215 307.043 135.001 310.402 135.229C311.32 135.249 312.228 135.374 313.122 135.594C314.476 135.764 315.792 136.111 317.128 136.375C319.828 136.908 322.385 137.89 325.003 138.685C326.261 139.069 327.447 139.658 328.74 139.934C329.254 140.224 329.837 140.314 330.386 140.496C333.186 141.425 336.008 142.28 338.87 142.988C338.868 142.738 338.749 142.53 338.642 142.316Z" fill="#F7F3E0"/>
<path d="M281.068 139.994C280.301 140.053 279.647 139.603 278.912 139.505C278.681 139.474 278.454 139.39 278.227 139.33C278.599 139.016 279.085 138.94 279.497 138.704C279.758 138.554 279.894 138.769 280.039 138.918C280.385 139.273 280.725 139.636 281.068 139.994Z" fill="#CDB098"/>
<path d="M267.643 104.475C277.297 111.618 295.408 129.76 292.329 139.944C291.732 139.002 292.22 136.617 291.274 135.088C286.753 124.319 260.574 122.42 254.162 119.792C266.993 121.923 287.243 126.473 291.231 133.397C285.99 119.455 275.473 112.711 267.643 104.475Z" fill="#AD9680"/>
<path d="M297.825 134.732C303.109 129.588 308.832 124.171 315.736 121.074C302.127 127.98 290.964 144.943 293.252 138.947C296.49 124.844 281.075 107.722 275.637 99.9418C275.243 99.6595 274.171 97.8891 275.362 99.052C285.436 111.798 296.594 127.093 293.989 138.105C293.24 140.199 296.574 135.067 297.825 134.732Z" fill="#92806D"/>
<path d="M331.481 71.458C331.72 70.9489 332.073 70.5728 332.617 70.3576C336.393 68.8614 340.164 67.3558 343.929 65.8318C344.318 65.6722 344.51 65.7304 344.639 66.1065C344.925 66.3861 345.084 66.7369 345.23 67.1005C347.329 72.3705 349.429 77.6406 351.55 82.9018C351.694 83.2593 351.902 83.6108 351.794 84.0256C351.64 84.3609 351.308 84.4428 351.013 84.562C347.592 85.9529 344.157 87.3035 340.728 88.6698C339.935 88.984 339.198 89.3027 338.952 90.2196C338.929 90.3018 338.845 90.3553 338.764 90.3885C338.363 90.2641 338.327 89.8769 338.2 89.5716C336.786 86.123 335.437 82.6478 334.029 79.197C333.252 77.2898 332.491 75.3759 331.735 73.4628C331.577 73.0621 331.405 72.6596 331.36 72.2213C331.285 71.9523 331.316 71.6948 331.481 71.458Z" fill="#FFFAEC"/>
<path d="M328.569 72.0197C328.892 71.822 329.243 71.6867 329.615 71.6102C329.767 71.6835 329.819 71.8257 329.876 71.9687C331.226 75.5 332.678 78.9949 334.069 82.5109C334.942 84.7133 335.864 86.8959 336.705 89.1089C336.832 89.4406 336.95 89.7652 336.751 90.1091C336.579 90.3567 336.31 90.4529 336.049 90.559C332.659 91.9216 329.263 93.2629 325.866 94.6099C325.518 94.7484 325.158 94.9943 324.757 94.7198C324.319 94.1847 324.165 93.514 323.919 92.8956C321.915 87.8943 319.906 82.8981 317.915 77.8898C317.778 77.5479 317.618 77.2087 317.684 76.8235C317.665 76.6209 317.442 76.4145 317.833 76.2612C320.857 75.0847 323.872 73.8864 326.889 72.6943C327.101 72.761 327.176 72.9475 327.249 73.125C327.721 74.2824 328.192 75.4426 328.657 76.6021C328.745 76.8228 328.817 77.0502 328.738 77.2924C328.572 77.5849 328.265 77.6584 327.985 77.7708C325.914 78.6193 323.831 79.4338 321.762 80.2885C323.788 79.5133 325.798 78.6978 327.81 77.8914C328.146 77.7571 328.474 77.5482 328.865 77.6154C329.211 77.8648 329.324 78.2035 329.249 78.614C328.81 79.1462 328.142 79.2714 327.55 79.4977C325.791 80.1734 324.063 80.9267 322.303 81.6053C324.142 80.905 325.978 80.1867 327.801 79.4461C328.318 79.2361 328.815 78.9528 329.392 78.9244C329.748 79.1663 329.859 79.5047 329.795 79.9167C329.58 80.2907 329.179 80.384 328.824 80.5304C326.929 81.2967 325.035 82.0601 323.129 82.8013C323.048 82.8317 322.965 82.8588 322.88 82.9621C324.897 82.168 326.866 81.3529 328.852 80.5842C329.209 80.4468 329.549 80.2102 329.97 80.3225C330.275 80.59 330.408 80.9195 330.336 81.3245C330.032 81.7043 329.569 81.7981 329.153 81.9599C327.398 82.645 325.661 83.3794 323.896 84.0366C323.741 84.0952 323.576 84.1407 323.357 84.326C325.488 83.4856 327.496 82.6376 329.542 81.868C329.842 81.7554 330.129 81.5732 330.476 81.6375C330.822 81.884 330.94 82.2174 330.855 82.6295C330.605 83.0018 330.184 83.0895 329.807 83.2419C327.841 84.0368 325.869 84.8132 323.912 85.627C326.019 84.8334 328.101 83.9658 330.195 83.138C330.453 83.0344 330.701 82.8765 331.002 82.9552C331.321 83.2098 331.487 83.5291 331.408 83.9449C331.268 84.2203 330.991 84.3096 330.733 84.4161C328.628 85.2806 326.499 86.0801 324.405 86.9697C326.327 86.263 328.216 85.4724 330.121 84.7222C330.577 84.5423 331.008 84.2472 331.537 84.3211C331.802 84.6037 332.171 84.7944 332.293 85.199C332.168 85.4293 331.937 85.5042 331.714 85.589C329.496 86.4647 327.277 87.3405 325.074 88.2536C327.741 87.2203 330.385 86.1311 333.064 85.1319C333.261 85.0878 333.452 85.1369 333.638 85.1943C332.979 83.7058 332.404 82.1815 331.8 80.6711C330.772 78.0949 329.738 75.5207 328.709 72.9474C328.598 72.656 328.414 72.3607 328.569 72.0197Z" fill="white"/>
<path d="M317.684 76.8238C319.229 80.6605 320.777 84.4976 322.318 88.3369C323.158 90.429 323.993 92.5204 324.83 94.6122C325.074 95.0715 325.439 94.9176 325.786 94.7905C326.966 94.3519 328.129 93.8638 329.298 93.3972C331.477 92.528 333.654 91.6554 335.831 90.7829C336.527 90.5029 337.201 90.4403 337.914 90.7361C338.522 90.9882 339.348 90.6403 339.59 90.0199C339.838 89.3796 340.28 89.0065 340.901 88.7576C344.226 87.4187 347.56 86.1072 350.88 84.7588C351.25 84.6085 351.707 84.5375 351.728 83.9902C349.826 79.2202 347.921 74.4498 346.022 69.6774C345.552 68.4907 345.097 67.3002 344.636 66.1089C345.226 65.7853 345.534 65.9707 345.782 66.5981C348.07 72.3934 350.389 78.1782 352.696 83.9672C352.996 84.7163 352.961 84.7969 352.184 85.1073C348.755 86.4736 345.328 87.846 341.894 89.1908C341.378 89.3922 341.069 89.6096 341.093 90.2422C341.116 90.8423 340.788 91.3159 340.194 91.5538C339.587 91.796 338.995 92.0636 338.381 92.281C337.812 92.4841 336.994 92.242 336.698 91.7316C336.495 91.3809 336.316 91.4215 336.023 91.5411C333.951 92.3806 331.873 93.2135 329.797 94.0407C328.283 94.6434 326.757 95.2091 325.256 95.8459C324.641 96.1075 324.376 95.9572 324.142 95.3552C323.269 93.1087 322.354 90.8769 321.456 88.6418C320.05 85.1353 318.664 81.6229 317.23 78.1275C316.964 77.48 317.004 77.0735 317.684 76.8238Z" fill="#FF7707"/>
<path d="M336.638 90.0561C336.735 89.7926 336.666 89.5628 336.565 89.3051C335.418 86.3865 334.196 83.496 333.08 80.5639C332.101 77.9943 331.01 75.4684 329.969 72.9257C329.796 72.5025 329.66 72.0666 329.616 71.6106C330.053 71.3753 330.469 71.5429 330.885 71.6898C331.255 71.5836 331.315 71.9299 331.491 72.1065C332.075 73.8026 332.781 75.4531 333.44 77.1181C334.156 78.926 334.895 80.7251 335.599 82.5373C336.528 84.9296 337.504 87.3047 338.462 89.6862C338.559 89.9257 338.669 90.161 338.772 90.3955C338.822 90.6433 338.623 90.5667 338.555 90.5223C338.018 90.1442 337.422 90.0849 336.792 90.1533C336.736 90.1575 336.678 90.1056 336.638 90.0561Z" fill="#E0E3CD"/>
<path d="M331.491 72.1025C331.187 72.1116 331.109 71.7927 330.885 71.6863C331.033 71.48 331.277 71.5245 331.48 71.4577C331.484 71.6726 331.487 71.8876 331.491 72.1025Z" fill="#656FCB"/>
<path d="M336.638 90.0557C337.4 89.7904 338.099 89.8431 338.694 90.4523C338.702 90.4622 338.735 90.4578 338.747 90.4507C338.764 90.4381 338.767 90.415 338.775 90.3956C338.847 89.4876 339.353 88.9849 340.195 88.6538C343.878 87.2128 347.543 85.7312 351.215 84.2595C351.392 84.1891 351.557 84.0818 351.728 83.9901C352.082 84.4847 351.766 84.6481 351.35 84.8128C347.841 86.2094 344.338 87.6216 340.824 89.0088C340.268 89.2283 339.931 89.589 339.765 90.149C339.575 90.7941 338.417 91.2681 337.839 90.9464C337.311 90.652 336.779 90.6276 336.213 90.8546C332.727 92.2514 329.23 93.6203 325.753 95.0418C325.18 95.2766 324.923 95.2186 324.825 94.6113C325.01 94.8068 325.195 94.6552 325.36 94.5891C329.062 93.1154 332.765 91.636 336.465 90.1561C336.53 90.1325 336.583 90.0896 336.638 90.0557Z" fill="#E0E3CD"/>
<path d="M327.211 74.7703C327.323 75.0059 327.536 75.2581 327.055 75.4464C324.932 76.2732 322.814 77.1184 320.697 77.9636C320.427 78.0715 320.266 78.0646 320.139 77.7593C320.009 77.436 320.174 77.32 320.417 77.2202C322.513 76.3809 324.606 75.5384 326.704 74.7053C326.86 74.6409 327.035 74.5644 327.211 74.7703Z" fill="#E0E3CD"/>
<path d="M335.326 87.1624C335.476 87.5148 335.205 87.5608 334.987 87.6463C333.74 88.1466 332.493 88.6526 331.246 89.1529C329.532 89.8377 327.823 90.5199 326.105 91.1923C325.937 91.2581 325.7 91.5173 325.564 91.1697C325.435 90.8377 325.785 90.8376 325.947 90.7711C328.862 89.5918 331.781 88.4277 334.706 87.2645C334.896 87.187 335.095 87.0666 335.326 87.1624Z" fill="#E0E3CD"/>
<path d="M325.093 89.574C325.862 89.2538 326.578 88.9439 327.302 88.6587C329.635 87.7338 331.974 86.8153 334.313 85.8969C334.475 85.8333 334.668 85.621 334.806 85.9101C334.943 86.1992 334.665 86.2324 334.504 86.296C331.891 87.3454 329.276 88.3915 326.662 89.4346C326.239 89.6043 325.816 89.7712 325.392 89.9318C325.277 89.9752 325.136 90.0416 325.051 89.8802C324.981 89.7502 325.003 89.6296 325.093 89.574Z" fill="#E0E3CD"/>
<path d="M335.878 88.5216C336.032 88.907 335.71 88.9196 335.513 88.9992C334.347 89.472 333.176 89.9325 332.004 90.3987C330.248 91.0954 328.491 91.7949 326.736 92.4858C326.553 92.5583 326.291 92.7819 326.168 92.5095C326.026 92.1875 326.388 92.1449 326.587 92.0657C329.51 90.8934 332.432 89.7268 335.362 88.573C335.514 88.5111 335.694 88.3117 335.878 88.5216Z" fill="#E0E3CD"/>
<path d="M332.292 85.1283C332.575 85.0958 332.834 85.1835 333.088 85.2853C330.411 86.3611 327.736 87.4374 325.056 88.5071C324.891 88.5732 324.648 88.7406 324.544 88.4855C324.425 88.19 324.73 88.1545 324.919 88.0799C327.379 87.0925 329.835 86.1104 332.292 85.1283Z" fill="#E0E3CD"/>
<path d="M331.32 83.9393C331.391 84.0958 331.461 84.2523 331.531 84.4116C329.331 85.2782 327.132 86.1447 324.932 87.0112C324.752 87.0812 324.567 87.1475 324.384 87.2142C324.232 87.2703 324.064 87.43 323.949 87.1704C323.838 86.9203 324.049 86.881 324.205 86.8195C325.15 86.4376 326.098 86.0648 327.044 85.68C328.472 85.1011 329.895 84.5186 331.32 83.9393Z" fill="#E0E3CD"/>
<path d="M328.664 77.2889C328.719 77.4257 328.775 77.5597 328.831 77.6936C326.479 78.6397 324.128 79.5859 321.779 80.5353C321.605 80.6061 321.416 80.7837 321.296 80.4912C321.181 80.211 321.424 80.1759 321.601 80.1056C323.957 79.1689 326.311 78.2289 328.664 77.2889Z" fill="#E0E3CD"/>
<path d="M330.271 81.3074C330.329 81.4417 330.388 81.576 330.446 81.7103C328.111 82.644 325.773 83.5772 323.438 84.5109C323.258 84.5808 323.04 84.7162 322.929 84.469C322.807 84.1909 323.096 84.165 323.258 84.1014C325.596 83.1652 327.933 82.2377 330.271 81.3074Z" fill="#E0E3CD"/>
<path d="M329.189 78.6001C329.242 78.7366 329.294 78.873 329.35 79.0069C327.466 79.7776 325.585 80.5487 323.7 81.3133C323.239 81.5014 322.771 81.674 322.306 81.8498C322.142 81.9102 321.942 82.1126 321.82 81.8168C321.7 81.5272 321.989 81.4984 322.141 81.4365C323.564 80.8568 324.996 80.2931 326.423 79.72C327.344 79.3495 328.265 78.9732 329.189 78.6001Z" fill="#E0E3CD"/>
<path d="M329.714 79.9176C329.783 80.077 329.853 80.2364 329.923 80.3957C327.608 81.3115 325.296 82.2247 322.982 83.1376C322.796 83.2096 322.547 83.4203 322.423 83.139C322.298 82.8605 322.614 82.8088 322.801 82.7309C325.007 81.8388 327.215 80.9499 329.421 80.0578C329.521 80.0182 329.616 79.9634 329.714 79.9176Z" fill="#E0E3CD"/>
<path d="M330.796 82.6251C330.852 82.7591 330.907 82.893 330.963 83.0269C328.595 83.9856 326.227 84.9442 323.86 85.9029C323.704 85.9673 323.524 86.102 323.432 85.8455C323.31 85.5056 323.642 85.5032 323.804 85.4367C325.771 84.636 327.745 83.8538 329.713 83.068C330.077 82.9227 330.435 82.7708 330.796 82.6251Z" fill="#E0E3CD"/>
<path d="M320.802 78.8922C321.058 78.7796 321.315 78.6612 321.576 78.558C323.466 77.8058 325.354 77.0503 327.25 76.3137C327.409 76.2526 327.661 75.9688 327.786 76.3092C327.884 76.5693 327.604 76.6582 327.402 76.737C325.33 77.5588 323.259 78.3838 321.184 79.1994C321.051 79.2521 320.877 79.4465 320.732 79.2152C320.662 79.1 320.633 78.9666 320.802 78.8922Z" fill="#E0E3CD"/>
<path d="M328.569 72.02C330.345 76.4526 332.122 80.8852 333.905 85.3305C333.742 85.385 333.234 85.5344 332.63 85.3387C331.979 85.1249 331.652 84.6515 331.562 84.51C330.981 83.2674 330.407 81.9785 329.848 80.6417C328.693 77.8896 327.717 75.2293 326.889 72.6946C327.425 72.4077 327.989 72.1923 328.569 72.02Z" fill="#304858"/>
<path d="M362.313 104.902C360.113 102.551 357.917 100.191 355.72 97.8347C354.632 96.6034 353.52 95.3924 352.334 94.2539C351.943 94.0102 351.785 94.383 351.592 94.566C349.618 96.4481 347.654 98.3462 345.693 100.242C342.86 102.976 340.061 105.748 337.192 108.445C336.916 108.705 336.6 108.957 336.58 109.389C336.598 109.518 336.634 109.646 336.718 109.743C337.625 110.785 338.57 111.795 339.554 112.768C339.681 112.894 339.831 112.984 340.014 112.959C340.038 113.327 340.271 113.585 340.509 113.834C342.625 116.083 344.748 118.33 346.885 120.561C347.061 120.743 347.216 120.97 347.516 120.945C352.45 115.925 357.382 110.905 362.321 105.891C362.676 105.527 362.634 105.245 362.313 104.902ZM352.498 112.811C351.658 113.61 350.877 114.473 350.081 115.316C349.385 116.055 349.305 116.059 348.621 115.344C347.209 113.875 345.82 112.385 344.414 110.911C344.086 110.567 343.789 110.177 343.329 109.983C343.351 109.713 343.111 109.548 342.956 109.363C342.502 108.805 341.974 108.31 341.485 107.783C341.113 107.38 341.095 107.057 341.524 106.682C342.241 106.058 342.883 105.35 343.579 104.705C344.953 103.431 344.943 103.438 346.253 104.817C346.578 105.161 346.81 105.662 347.377 105.694C347.353 106.132 347.682 106.382 347.944 106.662C349.467 108.275 350.965 109.911 352.492 111.519C352.93 111.981 352.997 112.337 352.498 112.811Z" fill="#FF7707"/>
<path d="M351.642 93.5167C351.546 93.395 351.464 93.2663 351.358 93.1521C350.114 91.8116 349.46 91.7944 348.152 93.06C346.376 94.7776 344.601 96.4952 342.828 98.216C339.746 101.208 336.664 104.203 333.581 107.198C333.555 107.351 333.643 107.465 333.764 107.482C334.529 107.573 335.068 108.092 335.686 108.46C335.738 108.47 335.785 108.474 335.831 108.477C336.075 108.81 336.438 109.041 336.675 109.381C338.533 107.572 340.389 105.762 342.247 103.953C343.681 102.56 345.116 101.164 346.559 99.7785C348.48 97.9335 350.41 96.0955 352.337 94.257C352.156 93.9592 351.928 93.7109 351.642 93.5167Z" fill="#304858"/>
<path d="M334.641 108.376C334.304 108.019 333.917 107.982 333.574 108.28C333.509 108.28 333.441 108.283 333.372 108.294C332.196 108.86 332.019 109.648 332.85 110.603C333.511 111.363 334.235 112.06 334.922 112.793C337.867 115.933 340.812 119.069 343.773 122.193C344.062 122.496 344.309 122.915 344.833 122.868C345.262 122.437 345.687 122.006 346.116 121.578C346.286 121.427 346.454 121.273 346.621 121.122C342.628 116.872 338.641 112.616 334.641 108.376Z" fill="#FFFAEC"/>
<path d="M343.285 110.151C342.543 109.343 341.812 108.521 341.053 107.731C340.723 107.387 340.67 107.118 341.044 106.768C342.165 105.715 343.284 104.66 344.371 103.573C344.809 103.135 345.101 103.177 345.493 103.63C346.112 104.345 346.791 105.01 347.446 105.698C349.296 107.696 351.129 109.713 353.01 111.68C353.408 112.095 353.345 112.322 353.001 112.67C351.918 113.769 350.829 114.864 349.788 116.003C349.384 116.446 349.178 116.318 348.833 115.952C346.993 114.005 345.136 112.082 343.285 110.151Z" fill="white"/>
<path d="M336.049 114.83C334.988 113.458 331.501 110.661 331.783 109.345C332.235 108.041 333.688 106.572 335.092 107.713C337.121 109.433 338.555 111.481 340.54 113.444C342.695 116.192 345.873 118.407 347.36 121.116C346.07 121.869 343.872 118.103 343.014 117.588C340.389 114.83 337.9 112.178 335.288 109.407C334.807 108.957 334.447 108.197 333.649 108.358C331.12 109.439 333.711 110.922 334.685 112.164C338.099 116.04 341.94 119.368 344.967 123.336C344.895 125.144 335.845 115.008 336.049 114.83Z" fill="#253946"/>
<path d="M285.178 59.5697C285.553 60.523 285.929 61.4734 286.307 62.4271C286.402 62.6221 286.404 62.8253 286.342 63.0258C286.074 63.8604 286.409 64.4554 286.987 65.0594C287.776 65.8889 288.607 66.1593 289.652 65.6348C291.091 65.7163 292.387 66.3431 293.727 66.7759C297.717 68.0644 301.711 69.3476 305.701 70.6448C307.919 71.369 310.139 72.0846 312.361 72.7977C312.672 72.8981 312.984 72.9841 313.225 73.2225C313.587 73.3534 313.944 73.5013 314.309 73.612C314.668 73.7191 314.941 73.9027 314.796 74.3009C314.666 74.657 314.335 74.5979 314.033 74.5015C312.2 73.9142 310.363 73.3265 308.529 72.7392C302.631 70.8475 296.732 68.9616 290.837 67.0616C290.344 66.9012 289.898 66.8209 289.384 67.0342C287.41 67.8486 284.401 65.0301 285.08 62.9977C285.253 62.4797 285.241 62.0164 284.915 61.5726C284.165 60.8484 283.895 59.9474 283.931 58.9317C281.292 52.2892 278.65 45.6464 276.011 39.001C275.887 38.6932 275.733 38.3284 276.131 38.1495C276.578 37.9507 276.745 38.3113 276.879 38.6676C277.028 39.0522 277.201 39.4284 277.362 39.8059C277.673 40.0094 277.832 40.3189 277.964 40.6513C280.028 45.9019 282.154 51.1284 284.177 56.3942C284.342 57.1221 284.754 57.7539 284.987 58.4528C285.108 58.8191 285.285 59.1693 285.178 59.5697Z" fill="#FF7707"/>
<path d="M283.932 58.9314C284.261 59.8109 284.587 60.6928 284.916 61.5723C283.81 62.7533 282.707 63.9346 281.55 65.1705C281.255 64.6044 281.693 63.925 281.279 63.6783C280.906 63.4575 280.316 63.5961 279.593 63.5667C281.126 61.9283 282.527 60.4311 283.932 58.9314Z" fill="#304858"/>
<path d="M280.504 41.2802C280.385 41.073 280.269 40.8839 280.016 40.7941C279.126 40.4747 278.245 40.1358 277.359 39.8052C279.576 45.4115 281.789 51.0174 284.006 56.6237C285.171 56.8596 286.108 56.3912 286.964 55.6708C285.398 50.6135 283.118 45.8723 280.504 41.2802Z" fill="#F7F7E0"/>
<path d="M312.973 72.6765C312.557 71.2354 311.812 70.1912 310.232 69.7469C308.758 69.3314 307.371 68.6158 305.933 68.061C301.367 66.304 296.806 64.5359 291.995 63.5226C291.807 63.4826 291.553 63.5515 291.347 63.2473C293.625 63.3766 295.725 63.882 297.802 64.4962C302.446 65.8724 306.936 67.6486 311.34 69.6456C311.571 69.75 311.895 70.0759 312.093 69.6496C312.242 69.3313 311.879 69.2944 311.682 69.2062C306.099 66.7185 300.464 64.3769 294.461 63.0624C294.304 63.0266 294.033 63.1167 294.003 62.7686C294.285 62.7711 294.548 62.7652 294.811 62.7799C298.898 62.9756 302.851 63.912 306.766 65.0111C308.508 65.4977 310.221 66.0807 311.951 66.6099C312.152 66.6721 312.428 66.871 312.537 66.5003C312.62 66.2085 312.337 66.1882 312.163 66.1031C312.083 66.063 311.994 66.048 311.91 66.0191C307.264 64.4631 302.567 63.1092 297.69 62.4811C296.626 62.3441 295.552 62.2588 294.483 62.1507C294.708 62.0103 294.934 61.97 295.159 61.9591C298.64 61.7616 302.097 62.0755 305.533 62.5837C307.673 62.9005 309.796 63.3295 311.93 63.6954C312.126 63.7275 312.417 63.9489 312.528 63.5815C312.666 63.1207 312.253 63.221 312.037 63.1655C311.55 63.0414 311.054 62.9425 310.558 62.8494C305.299 61.8671 300.025 61.0651 294.648 61.4315C293.638 61.499 292.636 61.6851 291.433 61.8412C293.301 60.6979 295.069 59.8086 296.887 59.0174C301.081 57.1892 305.419 55.7774 309.824 54.5538C310.077 54.4849 310.535 54.514 310.409 54.0735C310.298 53.6939 309.952 53.9504 309.726 54.0084C307.227 54.6552 304.764 55.4246 302.33 56.2775C298.125 57.7512 294.01 59.4283 290.164 62.0003C290.677 60.8956 291.179 59.9572 291.562 58.9703C293.66 53.5784 294.46 47.924 294.893 42.1998C294.92 41.8446 294.935 41.4907 294.953 41.1344C294.961 40.9884 294.975 40.8167 294.776 40.7929C294.579 40.7694 294.424 40.8457 294.403 41.0722C294.388 41.2496 294.384 41.4286 294.369 41.606C294.044 46.2887 293.419 50.9254 292.145 55.4574C292 55.9703 291.835 56.4775 291.67 56.9848C291.518 57.4556 291.352 57.9245 291.189 58.3938C292.202 52.6445 292.376 46.8767 292.215 41.0873C292.207 40.7922 292.447 40.2332 291.907 40.2402C291.433 40.2471 291.69 40.764 291.685 41.0398C291.66 43.0247 291.717 45.0146 291.654 46.9973C291.511 51.4164 291.257 55.8293 289.968 60.1005C289.789 60.6941 289.644 61.31 289.167 61.8635C289.048 60.5593 288.984 59.3478 288.821 58.1495C288.011 52.1937 286.381 46.4307 284.637 40.6968C284.558 40.4361 284.627 39.8748 284.161 40.0181C283.713 40.1521 284.074 40.577 284.124 40.8631C284.178 41.1822 284.308 41.4878 284.401 41.8003C285.83 46.6069 287.144 51.4391 287.992 56.3882C288.213 57.6796 288.422 58.9753 288.295 60.317C288.127 59.7034 287.962 59.0872 287.795 58.4735C286.741 58.4791 285.78 58.7118 285.098 59.6056C285.177 60.7222 285.592 61.7131 286.216 62.6263C287.323 63.416 288.471 64.1583 289.294 65.2777C289.337 65.3099 289.38 65.3363 289.427 65.3631C289.406 65.5604 289.597 65.6771 289.762 65.8051C294.107 67.1884 298.453 68.5746 302.802 69.9525C306.273 71.0508 309.746 72.1405 313.221 73.2363C313.142 73.0403 313.057 72.8584 312.973 72.6765Z" fill="#F7F7E0"/>
<path d="M284.008 56.624C285.03 56.4142 285.986 56.0042 286.966 55.6711C287.422 56.547 287.636 57.4934 287.798 58.4592C286.932 58.8429 285.986 59.0483 285.178 59.5692C284.773 58.5943 284.294 57.6477 284.008 56.624Z" fill="#304858"/>
<path d="M289.524 65.141C289.603 65.3604 289.686 65.5774 289.766 65.794C288.758 66.4176 288.025 66.378 287.218 65.6609C285.788 64.3895 285.642 63.8729 286.308 62.424C287.605 63.0628 288.703 63.9337 289.524 65.141Z" fill="#304858"/>
</g>
<path d="M4.3229 166.77C5.78482 168.739 7.58086 170.493 9.7256 171.899C10.1706 172.19 11.7988 171.988 11.0081 171.469C9.00776 170.157 7.26717 168.507 5.84026 166.622L19.854 164.954L24.2952 155.054L26.0329 164.218L139.491 150.714L138.276 140.821L145.501 149.994L164.452 147.655C163.903 148.492 163.287 149.279 162.574 149.973C162.358 150.183 163.862 150.669 164.193 150.346C165.081 149.484 165.83 148.481 166.48 147.405L173.289 146.565C173.289 146.565 172.733 141.143 170.706 135.05C170.931 133.731 171.112 132.405 171.192 131.075C171.611 124.111 168.228 117.92 163.187 113.371C157.165 107.936 149.328 105.786 141.799 103.485C139.968 102.926 138.098 102.359 136.261 101.704C134.221 100.246 132.243 98.7116 130.406 97.0044C126.251 93.141 123.379 88.3912 120.556 83.4898C119.768 82.1217 118.966 80.7565 118.13 79.4152C103.063 43.1793 71.0491 57.2709 71.0491 57.2709C54.803 52.6848 41.831 67.6612 35.9104 85.0676C32.3489 95.5397 34.339 105.061 31.5056 115.151C30.8943 116.298 30.2348 117.421 29.4659 118.485C22.4306 128.218 9.85107 131.951 3.33515 142.193C-1.27823 149.444 -0.93828 158.46 3.32348 165.305C3.79182 166.153 4.21493 166.649 4.3229 166.77ZM132.335 100.084C131.526 99.6946 130.731 99.2782 129.968 98.8098C127.99 97.5963 126.237 96.0646 124.66 94.3589C123.461 92.2889 122.323 90.0077 121.255 87.496C123.699 91.4576 126.442 95.0965 129.981 98.1807C130.744 98.8454 131.541 99.4626 132.335 100.084ZM169.43 131.651C167.412 126.856 164.411 122.182 159.984 119.848C159.317 119.495 158.622 119.159 157.902 118.829C157.803 118.698 157.705 118.566 157.605 118.436C152.329 111.758 144.926 107.662 138.025 102.939C138.823 103.195 139.621 103.445 140.415 103.689C148.242 106.096 156.391 108.247 162.465 114.176C165.235 116.879 167.469 120.203 168.719 123.913C169.566 126.425 169.657 129.038 169.43 131.651ZM126.742 97.6647C127.616 98.316 128.515 98.9317 129.471 99.4611C131.083 100.355 132.787 101.084 134.523 101.733C137.429 103.836 140.451 105.78 143.427 107.778C147.486 110.506 151.766 113.767 155.149 117.636C146.54 114.067 135.453 110.428 126.742 97.6647ZM1.92283 157.652C1.75796 156.708 1.65 155.749 1.62082 154.776C1.43552 148.7 3.89687 143.184 7.93102 138.805C11.8572 134.543 16.7726 131.462 21.3918 128.065C24.2033 125.998 26.8937 123.772 29.1975 121.189C26.8062 126.016 22.9296 131.029 16.5144 136.385C5.84756 145.292 2.47871 152.495 1.92283 157.652Z" fill="#30323E"/>
<path opacity="0.5" d="M97.936 75.2632C77.9578 72.7441 57.5259 74.1762 38.1007 79.4821C37.2909 81.3008 36.5571 83.1686 35.9107 85.0676C35.7371 85.5777 35.5868 86.0833 35.4395 86.5889C38.4319 85.542 41.4506 84.5724 44.5086 83.7322C57.7914 80.0814 71.2872 78.4962 84.6663 78.8531C88.9616 78.9676 92.7113 79.2174 96.6841 79.6963C96.8548 78.1497 97.2721 76.6715 97.936 75.2632Z" fill="white"/>
<path opacity="0.5" d="M3.86139 144.718C3.17566 144.831 2.48701 144.936 1.80273 145.066C2.2346 144.084 2.74233 143.124 3.33469 142.193C3.73592 141.561 4.16195 140.955 4.6084 140.369C5.31602 140.31 6.02364 140.261 6.73272 140.218C5.60636 141.623 4.64488 143.129 3.86139 144.718Z" fill="white"/>
<path opacity="0.5" d="M169.687 124.477C169.616 124.478 169.511 124.478 169.363 124.475C169.204 124.474 169.045 124.472 168.885 124.471C168.831 124.285 168.78 124.098 168.719 123.913C168.039 121.895 167.06 119.996 165.869 118.244C166.4 118.237 166.931 118.24 167.462 118.25C168.79 120.203 169.822 122.325 170.466 124.579C170.306 124.559 170.147 124.532 169.986 124.514C169.843 124.499 169.749 124.487 169.687 124.477Z" fill="white"/>
<path opacity="0.5" d="M165.408 124.584C165.284 124.593 165.16 124.593 165.036 124.604C164.842 124.627 164.224 124.693 164.126 124.706C163.627 124.776 163.129 124.855 162.635 124.943C161.558 125.133 160.49 125.366 159.431 125.637C157.776 126.061 155.947 126.69 154.068 127.472C146.294 130.707 139.505 135.836 133.108 141.295C131.279 142.855 127.947 142.432 125.985 141.405C124.276 140.511 122.883 138.551 124.72 136.984C131.994 130.776 139.901 124.998 148.853 121.592C151.892 120.437 155.035 119.556 158.223 118.987C158.827 119.268 159.422 119.552 159.987 119.849C162.105 120.968 163.893 122.633 165.408 124.584Z" fill="white"/>
<path d="M124.916 111.592C109.483 102.94 118.898 80.183 100.224 71.5312C81.5499 62.8793 67.6602 78.2944 67.6602 78.2944L89.6065 156.654L139.491 150.716L138.276 140.823L145.501 149.996L157.736 148.486C156.585 140.606 150.554 126.445 124.916 111.592Z" fill="#222433"/>
<path d="M9.49932 291C11.0993 280.2 21.4993 261.833 26.4993 254H75.4995L100.499 302C69.4993 302.833 7.89932 301.8 9.49932 291Z" fill="#FDCF8D"/>
<path d="M15.1387 255.469C15.1387 255.469 60.1228 150.716 87.7753 150.716C153.715 150.716 137.805 291.827 137.805 291.827C111.516 295.337 29.7783 279.432 15.1387 255.469Z" fill="#FF7707"/>
<path d="M118.234 164.877C110.861 156.147 101.075 150.716 88.1395 150.716C82.1386 150.716 75.3221 155.65 68.3262 163.374C74.3562 168.647 83.7143 172.033 94.2206 172.033C103.691 172.033 112.226 169.281 118.234 164.877Z" fill="#E06603"/>
<path d="M81.6367 215.144C67.7149 171.415 54.1549 185.582 54.7618 209.329C55.3688 233.077 72.5194 264.677 93.319 278.064C100.35 282.589 107.362 287.253 114.956 291.533C124.424 292.441 132.559 292.577 138.169 291.829C138.169 291.829 139.769 277.627 139.851 258.235C116.316 251.444 89.1258 238.662 81.6367 215.144Z" fill="#E06603"/>
<path d="M373.921 234.891C373.727 245.173 327.214 258.778 315.24 249.621C304.409 241.339 325.047 222.954 341.416 220.573C357.786 218.191 374.181 221.092 373.921 234.891Z" fill="#304858"/>
<path d="M63.5465 226.593C79.7429 269.105 134.031 291.301 169.181 291.347C248.515 291.451 301.481 264.673 317.338 240.172C318.838 237.855 320.475 234.725 319.395 232.203C316.076 224.446 290.288 229.981 274.948 231.783C228.366 237.257 188.344 218.867 162.597 207.035C112.884 184.192 93.1556 168.039 71.18 174.562C53.7186 179.744 55.2419 204.796 63.5465 226.593Z" fill="#FF7707"/>
<path d="M319.57 239.732C312.436 243.493 302.898 225.61 323.93 216.056C340.535 208.512 367.13 216.738 367.842 219.235C368.554 221.732 364.566 222.079 364.566 222.079C364.566 222.079 368.221 222.578 368.081 225.097C367.941 227.617 364.16 226.819 364.16 226.819C364.16 226.819 367.893 228.411 366.242 230.116C363.686 232.759 339.603 229.172 319.57 239.732Z" fill="#EA997B"/>
<path d="M361.585 220.993C356.72 219.452 351.662 218.584 346.57 218.432C345.114 218.389 343.655 218.404 342.2 218.477C342.041 218.484 341.745 218.475 341.645 218.321C341.55 218.175 341.687 218.093 341.831 218.086C347.081 217.823 352.349 218.285 357.478 219.466C358.953 219.805 360.415 220.206 361.859 220.664C361.976 220.702 362.189 220.785 362.113 220.942C362.046 221.084 361.687 221.026 361.585 220.993Z" fill="#C9665D"/>
<path d="M361.673 226.216C356.672 224.757 351.435 224.168 346.241 224.468C344.776 224.553 343.317 224.711 341.869 224.937C341.685 224.965 341.419 224.932 341.318 224.746C341.227 224.578 341.349 224.413 341.526 224.385C346.835 223.555 352.27 223.633 357.55 224.639C359.041 224.923 360.518 225.283 361.975 225.709C362.131 225.755 362.303 225.927 362.212 226.1C362.114 226.283 361.835 226.263 361.673 226.216Z" fill="#C9665D"/>
<path opacity="0.5" d="M277.963 262.807C270.831 265.801 263.761 268.263 256.41 270.31C263.006 262.556 270.459 255.614 278.648 249.627C279.462 249.032 279.375 248.127 278.24 248.073C270.021 247.685 261.801 247.297 253.583 246.909C260.847 244.507 268.006 241.778 275.027 238.709C275.433 238.532 277.86 237.118 276.226 236.651C271.62 235.336 267.016 234.022 262.41 232.705C257.852 232.845 253.367 232.771 248.963 232.514C255.863 234.484 262.763 236.453 269.661 238.423C261.944 241.661 254.117 244.48 246.196 246.857C245.462 247.077 244.262 247.448 243.89 248.21C243.578 248.849 244.133 249.227 244.767 249.257C253.998 249.693 263.23 250.128 272.461 250.564C263.997 256.991 256.285 264.443 249.551 272.726C248.311 274.252 251.798 273.873 252.332 273.739C260.188 271.767 267.926 269.294 275.481 266.343C274.778 268.363 274.076 270.384 273.373 272.403C275.453 271.507 277.472 270.589 279.429 269.652C280.172 267.517 280.916 265.381 281.658 263.244C282.189 261.726 278.402 262.623 277.963 262.807Z" fill="white"/>
<path opacity="0.5" d="M247.957 255.256C249.182 254.063 248.055 253.333 246.825 253.19C237.254 252.087 227.681 250.983 218.108 249.878C225.999 245.823 234.308 242.432 242.591 239.857C243.364 239.616 244.293 239.254 244.753 238.517C245.068 238.011 245.008 237.324 244.378 237.094C239.584 235.339 234.967 233.095 230.625 230.39C226.696 229.715 222.85 228.916 219.092 228.02C224.592 232.356 230.615 235.935 237.041 238.615C228.082 241.704 219.404 245.552 211.07 250.133C210.574 250.405 209.871 251.056 210.045 251.718C210.233 252.436 211.136 252.501 211.711 252.568C221.731 253.724 231.75 254.879 241.771 256.035C234.318 262.966 225.824 268.95 216.944 273.434C216.34 273.739 215.457 274.17 215.306 274.937C215.17 275.62 215.794 276.011 216.365 276.118C226.328 278.009 236.292 279.901 246.257 281.793C248.863 281.082 251.407 280.34 253.891 279.568C243.593 277.612 233.295 275.658 222.998 273.703C232.07 268.699 240.484 262.527 247.957 255.256Z" fill="white"/>
<path d="M101.38 159.32C98.2331 163.6 83.4913 162.011 80.4551 157.649C77.5094 153.417 83.6985 115.472 83.6985 115.472L104.624 117.144C104.624 117.145 105.034 154.354 101.38 159.32Z" fill="#EA997B"/>
<path d="M103.796 146.799C104.811 134.236 104.623 117.145 104.623 117.145L83.6978 115.474C83.6978 115.474 82.3978 123.449 81.2715 132.493C84.7352 140.339 93.4104 146.082 103.796 146.799Z" fill="#C9665D"/>
<path d="M126.316 103.05C111.733 93.9954 110.822 74.3346 106.541 70.3715C106.541 70.3715 90.7967 60.2207 82.3067 64.8098C70.1999 71.353 65.1401 101.288 74.8994 117.114C84.6587 132.939 100.239 146.036 114.593 141.261C123.442 138.318 123.991 124.69 123.462 112.104C125.925 109.875 130.277 105.51 126.316 103.05Z" fill="#EA997B"/>
<path d="M104.841 77.0446L113.515 87.0824C110.27 79.6722 108.929 72.5833 106.544 70.3735C106.544 70.3735 90.7995 60.2226 82.3095 64.8118C73.1878 69.7429 68.0667 87.9523 70.2712 103.402L106.091 90.183L104.841 77.0446Z" fill="#C9665D"/>
<path d="M72.3017 59.284C72.3017 59.284 88.8074 47.1375 105.886 54.5744C122.966 62.0113 121.489 75.8531 121.489 75.8531L111.298 79.9471L102.389 68.7211L103.64 83.0239L67.201 97.6643C67.201 97.6643 56.4131 79.208 72.3017 59.284Z" fill="#30323E"/>
<path opacity="0.5" d="M75.5563 75.2375C75.8743 75.0665 76.1924 74.897 76.5119 74.7275C76.509 74.729 76.633 74.6635 76.7147 74.6204C76.7964 74.5773 76.9204 74.5133 76.9175 74.5148C77.5142 74.2085 78.111 73.9051 78.7106 73.6062C79.8647 73.0337 81.0275 72.4775 82.1977 71.9377C84.5379 70.8596 86.9088 69.8513 89.3059 68.9144C90.5519 68.4267 91.8067 67.9582 93.0672 67.5091C93.2029 67.4601 93.7792 67.2608 93.5487 67.3396C93.8026 67.2534 94.055 67.1656 94.3089 67.0794C94.9421 66.8652 95.5782 66.6556 96.2143 66.4518C98.664 65.6652 101.136 64.9528 103.625 64.3134C104.919 63.9803 106.219 63.668 107.523 63.3765C108.124 63.2412 108.728 63.1103 109.331 62.9839C109.481 62.9527 109.633 62.9215 109.783 62.8903C109.793 62.8888 109.893 62.8679 109.976 62.8501C110.057 62.8337 110.152 62.8144 110.162 62.8129C110.364 62.7743 110.567 62.7341 110.768 62.6954C112.579 62.3504 114.395 62.0486 116.219 61.7824C115.354 60.8054 114.351 59.8373 113.184 58.9004C107.822 59.8298 102.514 61.082 97.2925 62.6702C86.633 65.912 76.3587 70.4298 66.757 76.1566C65.8116 76.7202 64.8749 77.3016 63.944 77.8905C63.7208 79.4995 63.6245 81.0461 63.623 82.5168C65.3272 81.3465 67.0707 80.2074 68.8565 79.1055C71.0523 77.7507 73.286 76.4599 75.5563 75.2375Z" fill="white"/>
<path d="M106.872 101.435C108 101.02 108.292 98.9285 107.524 96.7644C106.756 94.6003 105.22 93.1827 104.092 93.5982C102.965 94.0137 102.673 96.1049 103.441 98.2691C104.208 100.433 105.745 101.851 106.872 101.435Z" fill="#30323E"/>
<path d="M114.936 123.8L103.07 122.488C103.07 122.488 102.663 131.258 107.845 133.323C113.028 135.387 114.936 123.8 114.936 123.8Z" fill="#222433"/>
<path d="M110.817 131.511C110.93 131.939 111.002 132.367 111.038 132.791C110.151 133.524 109.093 133.82 107.846 133.323C105.087 132.224 103.913 129.226 103.418 126.661C103.433 126.657 103.447 126.652 103.462 126.648C106.587 125.79 109.88 127.967 110.817 131.511Z" fill="#C04340"/>
<path d="M85.6648 74.9136C85.6648 74.9136 77.315 118.983 94.6669 132.562C107.379 142.508 98.8338 155.213 98.8338 155.213L88.9213 156.452L82.4755 146.457L81.7518 157.347L40.7129 162.473C40.7129 162.472 45.5393 88.9398 85.6648 74.9136Z" fill="#30323E"/>
<path opacity="0.5" d="M7.282 145.764C6.69548 146.697 15.4291 150.42 20.6494 150.654C27.2164 150.948 33.8607 150.083 40.3445 149.104C53.2144 147.161 65.6948 144.149 78.6945 143.349C84.5772 142.988 101.544 144.096 101.544 143.831C101.544 142.787 100.688 139.746 99.9406 138.656C98.9411 137.199 73.7368 139.261 64.0286 140.811C51.3527 142.833 39.0154 145.743 26.1615 146.343C23.0553 146.487 19.9039 146.439 16.9859 145.608C16.3191 145.418 15.6567 145.211 15.0104 144.961C14.7419 144.857 14.4764 144.746 14.2152 144.625C14.1043 144.575 13.9963 144.521 13.8855 144.469C13.2099 144.146 14.043 144.578 13.6797 144.357C12.5111 143.65 11.5686 142.759 10.8245 141.658C10.823 141.658 7.90062 144.781 7.282 145.764Z" fill="white"/>
<path d="M499.853 212.328L455.689 185.766L377.688 215.048L425.658 240.122L499.853 212.328Z" fill="#304858"/>
<path d="M377.312 202.146L377.687 215.048L451.217 187.415L451.509 174.351L377.312 202.146Z" fill="#253946"/>
<path d="M382.48 201.049V215.591L424.045 236.968L495.635 211.418V196.748L382.48 201.049Z" fill="white"/>
<path d="M499.478 199.426L451.509 174.351L377.312 202.146L425.283 227.22L499.478 199.426Z" fill="#304858"/>
<path d="M508.517 198.799L464.353 172.237L386.352 201.519L434.322 226.593L508.517 198.799Z" fill="#E55E4A"/>
<path d="M385.977 188.617L386.352 201.519L459.881 173.886L460.173 160.822L385.977 188.617Z" fill="#C04340"/>
<path d="M391.145 187.52V202.063L432.709 223.439L504.299 197.89V183.22L391.145 187.52Z" fill="white"/>
<path d="M508.142 185.898L460.173 160.822L385.977 188.617L433.947 213.691L508.142 185.898Z" fill="#E55E4A"/>
<path d="M374.305 181.862L418.469 155.3L496.47 184.582L448.499 209.656L374.305 181.862Z" fill="#304858"/>
<path d="M496.845 171.68L496.47 184.582L422.94 156.949L422.648 143.886L496.845 171.68Z" fill="#253946"/>
<path d="M491.678 170.582V185.126L450.114 206.503L378.523 180.952V166.283L491.678 170.582Z" fill="white"/>
<path d="M374.68 168.96L422.649 143.886L496.845 171.68L448.874 196.754L374.68 168.96Z" fill="#304858"/>
<path d="M182.382 200.92L181.615 201.042L181.841 202.513L182.608 202.39L182.382 200.92Z" fill="#3B3248"/>
<path d="M191.047 199.467L181.621 200.972L181.724 201.639L191.15 200.134L191.047 199.467Z" fill="#3B3248"/>
<path d="M223.283 197.187L218.666 197.925L218.762 198.549L223.379 197.812L223.283 197.187Z" fill="#3B3248"/>
<path d="M219.384 196.453L180.34 202.688L180.845 205.976L219.89 199.741L219.384 196.453Z" fill="#E55E4A"/>
<path d="M179.546 203.083L176.809 203.52L177.193 206.019L179.93 205.582L179.546 203.083Z" fill="#E55E4A"/>
<path d="M180.583 202.193L178.703 202.494L179.331 206.575L181.21 206.275L180.583 202.193Z" fill="#3B3248"/>
<defs>
<clipPath id="clip0_20_13338">
<rect width="132.352" height="110.293" fill="white" transform="translate(238.748 33.0405) rotate(7.64472)"/>
</clipPath>
</defs>
</svg>
