<svg width="355" height="344" viewBox="0 0 355 344" fill="none" xmlns="http://www.w3.org/2000/svg">
<circle cx="349" cy="113" r="6" fill="#FDD13C"/>
<circle cx="32" cy="340" r="4" fill="#FF8265"/>
<circle opacity="0.4" cx="3" cy="45" r="22" stroke="#FDD13C" stroke-width="2"/>
<path opacity="0.3" d="M321 0C313.269 0 307 6.26771 307 14.0007C307 21.7323 313.267 28 321 28C328.731 28 335 21.7323 335 14.0007C335 6.26771 328.733 0 321 0ZM321 22.3181C316.407 22.3181 312.682 18.5942 312.682 13.9993C312.682 9.4058 316.405 5.68046 321 5.68046C325.593 5.68046 329.318 9.40439 329.318 13.9993C329.318 18.5942 325.595 22.3181 321 22.3181Z" fill="#07A47C"/>
</svg>
